<?xml version="1.0" encoding="UTF-8"?>
<svg version="1.1" xmlns="http://www.w3.org/2000/svg" width="384" height="91">
<path d="M0 0 C0.69391846 0.06936768 1.38783691 0.13873535 2.1027832 0.21020508 C6.62001033 0.80866225 8.86184832 1.81390473 11.6875 5.375 C12.21472656 6.01179688 12.74195313 6.64859375 13.28515625 7.3046875 C19.458702 15.50315625 22.89654155 22.9674396 21.6875 33.375 C20.68973769 36.87704691 19.54977103 40.23592107 17.6875 43.375 C16.6975 43.705 15.7075 44.035 14.6875 44.375 C12.70436167 39.63750289 12.79631437 37.99789822 14.6875 33.375 C15.49721019 25.84341002 14.62499291 20.12283578 9.875 14.0625 C7.27505027 12.0568245 4.83809152 11.23425223 1.6875 10.375 C2.76151108 13.29017292 3.46560176 15.15310176 5.6875 17.375 C10.63486842 22.32236842 10.63486842 22.32236842 10.875 27.125 C10.7821875 28.73375 10.7821875 28.73375 10.6875 30.375 C5.9375 30.5 5.9375 30.5 3.6875 29.375 C3.6875 28.385 3.6875 27.395 3.6875 26.375 C2.6975 26.045 1.7075 25.715 0.6875 25.375 C-1 21.8125 -1 21.8125 -2.3125 18.375 C-2.93898438 18.38660156 -3.56546875 18.39820312 -4.2109375 18.41015625 C-5.02820313 18.41917969 -5.84546875 18.42820312 -6.6875 18.4375 C-7.49960937 18.44910156 -8.31171875 18.46070312 -9.1484375 18.47265625 C-11.3125 18.375 -11.3125 18.375 -13.3125 17.375 C-14.3025 21.335 -15.2925 25.295 -16.3125 29.375 C-18.2925 29.705 -20.2725 30.035 -22.3125 30.375 C-23.8154278 27.84375317 -24.5131987 26.16754012 -23.77734375 23.26171875 C-23.0153501 21.26635862 -22.20746636 19.31409378 -21.3125 17.375 C-20.6525 17.375 -19.9925 17.375 -19.3125 17.375 C-18.3225 15.395 -17.3325 13.415 -16.3125 11.375 C-19.46772316 11.375 -20.9742561 13.37893813 -23.3125 15.375 C-23.869375 15.7875 -24.42625 16.2 -25 16.625 C-28.18330648 20.86940864 -28.54205511 25.90640273 -28 31 C-27.78733144 32.46083043 -27.55910177 33.91951347 -27.3125 35.375 C-27.126875 36.550625 -26.94125 37.72625 -26.75 38.9375 C-26.605625 39.741875 -26.46125 40.54625 -26.3125 41.375 C-26.9725 41.375 -27.6325 41.375 -28.3125 41.375 C-27.9825 42.365 -27.6525 43.355 -27.3125 44.375 C-29.125 44.3125 -29.125 44.3125 -31.3125 43.375 C-35.6383196 36.8862706 -35.26561102 28.87885821 -34.3125 21.375 C-31.89132748 14.55307994 -28.06469977 7.02100751 -22.3125 2.375 C-20.1875 1.8125 -20.1875 1.8125 -17.3125 1.375 C-16.054375 0.983125 -14.79625 0.59125 -13.5 0.1875 C-8.88753248 -0.84874693 -4.65030886 -0.52323191 0 0 Z M-14.3125 7.375 C-8.3725 6.88 -8.3725 6.88 -2.3125 6.375 C-2.3125 6.045 -2.3125 5.715 -2.3125 5.375 C-3.7495809 5.32077053 -5.18725462 5.28210277 -6.625 5.25 C-7.82576172 5.21519531 -7.82576172 5.21519531 -9.05078125 5.1796875 C-11.59638576 5.21682678 -11.59638576 5.21682678 -14.3125 7.375 Z M-11.3125 8.375 C-11.3125 8.705 -11.3125 9.035 -11.3125 9.375 C-8.6725 9.375 -6.0325 9.375 -3.3125 9.375 C-3.3125 9.045 -3.3125 8.715 -3.3125 8.375 C-5.9525 8.375 -8.5925 8.375 -11.3125 8.375 Z " fill="#EEEEEF" transform="translate(56.3125,16.625)"/>
<path d="M0 0 C2.64 0 5.28 0 8 0 C9.32 8.25 10.64 16.5 12 25 C18.27794215 19.2123249 18.27794215 19.2123249 18 15.4375 C17.67 14.633125 17.34 13.82875 17 13 C16.649375 11.906875 16.29875 10.81375 15.9375 9.6875 C15.4734375 8.3571875 15.4734375 8.3571875 15 7 C18.465 6.505 18.465 6.505 22 6 C22.66 7.65 23.32 9.3 24 11 C25.50559539 9.03617993 26.89131683 7.21736634 28 5 C30.31 5 32.62 5 35 5 C34.45276317 8.37462715 33.9451 10.08235 32 13 C31.67 13.99 31.34 14.98 31 16 C30.01 16.33 29.02 16.66 28 17 C28.67170806 20.8063457 29.72746564 24.35206816 31 28 C28.1875 28.25 28.1875 28.25 25 28 C23.125 26 23.125 26 22 24 C21.47599609 25.22396484 21.47599609 25.22396484 20.94140625 26.47265625 C19 29 19 29 15.71484375 29.55859375 C14.46832031 29.51863281 13.22179687 29.47867188 11.9375 29.4375 C10.68839844 29.41558594 9.43929687 29.39367187 8.15234375 29.37109375 C5 29 5 29 3 27 C3 26.01 3 25.02 3 24 C1.54052295 24.06006078 0.08220728 24.1488689 -1.375 24.25 C-2.18710938 24.29640625 -2.99921875 24.3428125 -3.8359375 24.390625 C-6.18838927 24.7922092 -6.18838927 24.7922092 -7.2890625 27.046875 C-7.52367188 27.69140625 -7.75828125 28.3359375 -8 29 C-9.98 28.67 -11.96 28.34 -14 28 C-13.30911691 24.39993892 -11.81369937 21.56286875 -10.05859375 18.359375 C-9.47529297 17.28945313 -8.89199219 16.21953125 -8.29101562 15.1171875 C-7.67935547 14.00601563 -7.06769531 12.89484375 -6.4375 11.75 C-5.82197266 10.62335937 -5.20644531 9.49671875 -4.57226562 8.3359375 C-3.05220595 5.55505313 -1.52798227 2.77653673 0 0 Z M2 8 C1.30840599 9.84725052 1.30840599 9.84725052 1 12 C1.99 13.485 1.99 13.485 3 15 C3 12.69 3 10.38 3 8 C2.67 8 2.34 8 2 8 Z M0 12 C1 14 1 14 1 14 Z M3 15 C4 17 4 17 4 17 Z M-3 22 C-3 22.33 -3 22.66 -3 23 C-1.02 23 0.96 23 3 23 C3 22.67 3 22.34 3 22 C1.02 22 -0.96 22 -3 22 Z " fill="#FCFDFD" transform="translate(95,33)"/>
<path d="M0 0 C0.33 0.66 0.66 1.32 1 2 C1.66 1.67 2.32 1.34 3 1 C4.67654729 1.27942455 6.34608154 1.60828247 8 2 C6.82483148 22.22100323 6.82483148 22.22100323 2.2421875 28.3515625 C-0.55049976 30.40472282 -2.12532859 30.50764636 -5.5625 30.4375 C-6.51253906 30.43621094 -7.46257812 30.43492188 -8.44140625 30.43359375 C-11 30 -11 30 -12.83984375 28.72265625 C-14 27 -14 27 -14 23 C-12.68 22.67 -11.36 22.34 -10 22 C-10.48339844 21.47277344 -10.96679688 20.94554688 -11.46484375 20.40234375 C-14.41374304 15.78765402 -13.81169909 10.25608428 -13 5 C-10.12700478 -0.11433902 -5.47793821 -0.54779382 0 0 Z M-11 4 C-10 6 -10 6 -10 6 Z M-5 8 C-5.66 10.31 -6.32 12.62 -7 15 C-6.34 15.66 -5.68 16.32 -5 17 C-5 16.34 -5 15.68 -5 15 C-4.01 15 -3.02 15 -2 15 C-2 13.02 -2 11.04 -2 9 C-2.99 8.67 -3.98 8.34 -5 8 Z M-1 8 C-1 10.31 -1 12.62 -1 15 C-0.67 15 -0.34 15 0 15 C0 12.69 0 10.38 0 8 C-0.33 8 -0.66 8 -1 8 Z M-4 22 C-3.34 22.66 -2.68 23.32 -2 24 C-2 23.34 -2 22.68 -2 22 C-2.66 22 -3.32 22 -4 22 Z M-7 23 C-6.67 23.66 -6.34 24.32 -6 25 C-5.67 24.34 -5.34 23.68 -5 23 C-5.66 23 -6.32 23 -7 23 Z " fill="#D0D1D3" transform="translate(346,38)"/>
<path d="M0 0 C1.98 0 3.96 0 6 0 C7.18646816 3.55940447 6.75327105 5.28699601 6.0390625 8.9453125 C5.81476563 10.10417969 5.59046875 11.26304688 5.359375 12.45703125 C5.11703125 13.66746094 4.8746875 14.87789062 4.625 16.125 C4.39039063 17.34316406 4.15578125 18.56132813 3.9140625 19.81640625 C2.1395306 28.8604694 2.1395306 28.8604694 1 30 C-0.99958364 30.04080783 -3.00045254 30.04254356 -5 30 C-5 26.37 -5 22.74 -5 19 C-6.65 19 -8.3 19 -10 19 C-10.33 19.99 -10.66 20.98 -11 22 C-11.33 22 -11.66 22 -12 22 C-12.66 24.97 -13.32 27.94 -14 31 C-16.31 30.67 -18.62 30.34 -21 30 C-20.19383358 25.51966905 -19.37901403 21.04095575 -18.5625 16.5625 C-18.33240234 15.28310547 -18.10230469 14.00371094 -17.86523438 12.68554688 C-17.64287109 11.47060547 -17.42050781 10.25566406 -17.19140625 9.00390625 C-16.98717041 7.87799072 -16.78293457 6.7520752 -16.57250977 5.59204102 C-16 3 -16 3 -15 2 C-13.00041636 1.95919217 -10.99954746 1.95745644 -9 2 C-8.67 4.64 -8.34 7.28 -8 10 C-6.35 10 -4.7 10 -3 10 C-2.87625 9.46375 -2.7525 8.9275 -2.625 8.375 C-1.87793984 5.5361714 -0.94696636 2.77776798 0 0 Z M-10 7 C-10.33 8.65 -10.66 10.3 -11 12 C-8.69 12 -6.38 12 -4 12 C-4 11.67 -4 11.34 -4 11 C-5.65 11 -7.3 11 -9 11 C-9.33 9.68 -9.66 8.36 -10 7 Z M-10 17 C-10 17.33 -10 17.66 -10 18 C-8.35 18 -6.7 18 -5 18 C-5 17.67 -5 17.34 -5 17 C-6.65 17 -8.3 17 -10 17 Z M-4 17 C-3 21 -3 21 -3 21 Z " fill="#D4D6D8" transform="translate(241,31)"/>
<path d="M0 0 C3.3 0 6.6 0 10 0 C13.02210134 6.04420268 13.72825078 10.20618681 13 17 C11.93641526 19.46074832 10.75800606 20.92235647 9 23 C8.67 23.66 8.34 24.32 8 25 C4.94974851 25.28775957 2.03944829 25.44347822 -1 25 C-2.9375 22.6875 -2.9375 22.6875 -4 20 C-4.66 19.01 -5.32 18.02 -6 17 C-6.65241209 11.23702651 -5.44644375 8.56146967 -2 4 C-1.34 2.68 -0.68 1.36 0 0 Z M1 1 C1 1.33 1 1.66 1 2 C3.64 2 6.28 2 9 2 C9 1.67 9 1.34 9 1 C6.36 1 3.72 1 1 1 Z M6 8 C7 10 7 10 7 10 Z M0 14 C1 16 1 16 1 16 Z M2 14 C2 14.66 2 15.32 2 16 C3.32 15.67 4.64 15.34 6 15 C4.68 14.67 3.36 14.34 2 14 Z M0 23 C0 23.33 0 23.66 0 24 C2.31 24 4.62 24 7 24 C7 23.67 7 23.34 7 23 C4.69 23 2.38 23 0 23 Z " fill="#FCFCFC" transform="translate(155,38)"/>
<path d="M0 0 C2.97968206 3.15495748 3 4.62704763 3 9 C1.68 9.33 0.36 9.66 -1 10 C0.32 10.33 1.64 10.66 3 11 C2.67 11.66 2.34 12.32 2 13 C2.04125 13.94875 2.0825 14.8975 2.125 15.875 C1.98458629 19.38534287 1.39573019 20.51212634 -1 23 C-3.64458379 24.32229189 -5.67761301 24.09677194 -8.625 24.0625 C-9.62789063 24.05347656 -10.63078125 24.04445313 -11.6640625 24.03515625 C-12.43492187 24.02355469 -13.20578125 24.01195313 -14 24 C-18.0449982 18.10104429 -17.27748976 11.92696672 -17 5 C-16.01 5.33 -15.02 5.66 -14 6 C-13.71125 5.195625 -13.4225 4.39125 -13.125 3.5625 C-10.86356132 -1.58855477 -4.94636699 -0.73826373 0 0 Z M-10 1 C-10 1.33 -10 1.66 -10 2 C-7.03 2 -4.06 2 -1 2 C-1 1.67 -1 1.34 -1 1 C-3.97 1 -6.94 1 -10 1 Z M-8 7 C-7 9 -7 9 -7 9 Z M-6 7 C-5.67 7.66 -5.34 8.32 -5 9 C-4.34 8.34 -3.68 7.68 -3 7 C-3.99 7 -4.98 7 -6 7 Z M-14 11 C-14 14 -14 14 -14 14 Z M-12 13 C-12.66 13.66 -13.32 14.32 -14 15 C-13.01 15 -12.02 15 -11 15 C-11.33 14.34 -11.66 13.68 -12 13 Z M-10 14 C-10 14.99 -10 15.98 -10 17 C-8.68 16.34 -7.36 15.68 -6 15 C-7.32 14.67 -8.64 14.34 -10 14 Z " fill="#D4D5D6" transform="translate(285,38)"/>
<path d="M0 0 C4.29 0 8.58 0 13 0 C15.39831346 4.89655665 16.69598854 8.43209169 16 14 C14.38790776 17.82476786 12.25139158 21.37417307 9 24 C5.9363341 24.66601433 3.07190308 24.62012249 0 24 C-1.9375 21.75 -1.9375 21.75 -3 19 C-3.4125 18.401875 -3.825 17.80375 -4.25 17.1875 C-5.43505723 13.73108308 -4.86175435 10.46769949 -4 7 C-2.5 4.125 -2.5 4.125 -1 2 C-0.67 1.34 -0.34 0.68 0 0 Z M3 7 C4 9 4 9 4 9 Z M4 9 C4 10.98 4 12.96 4 15 C5.32 15.33 6.64 15.66 8 16 C9.61949011 13.42786866 10.04408751 12.32330841 9.625 9.25 C9.41875 8.5075 9.2125 7.765 9 7 C7.15953612 7 5.60370406 8.17228177 4 9 Z M2 9 C2 11.31 2 13.62 2 16 C2.33 16 2.66 16 3 16 C3 13.69 3 11.38 3 9 C2.67 9 2.34 9 2 9 Z M1 22 C1 22.33 1 22.66 1 23 C3.64 23 6.28 23 9 23 C9 22.67 9 22.34 9 22 C6.36 22 3.72 22 1 22 Z " fill="#D7D7D9" transform="translate(252,39)"/>
<path d="M0 0 C1.9375 2.25 1.9375 2.25 3 5 C3.4125 5.61875 3.825 6.2375 4.25 6.875 C6.2135041 12.43826162 3.3516637 17.98993386 1 23 C-3.62 23.33 -8.24 23.66 -13 24 C-16.12406656 17.75186688 -16.6145481 16.45275508 -16 10 C-14.625 7.25 -14.625 7.25 -13 5 C-12.649375 4.2575 -12.29875 3.515 -11.9375 2.75 C-9.72333362 -1.38311057 -4.07544021 -0.67424562 0 0 Z M-9 1 C-9 1.33 -9 1.66 -9 2 C-6.36 2 -3.72 2 -1 2 C-1 1.67 -1 1.34 -1 1 C-3.64 1 -6.28 1 -9 1 Z M-8 8 C-9.61949011 10.57213134 -10.04408751 11.67669159 -9.625 14.75 C-9.41875 15.4925 -9.2125 16.235 -9 17 C-7.35 17 -5.7 17 -4 17 C-2.56911472 14.13822943 -3.40008303 12.06624227 -4 9 C-5.32 8.67 -6.64 8.34 -8 8 Z M-3 8 C-3 10.31 -3 12.62 -3 15 C-2.67 15 -2.34 15 -2 15 C-2 12.69 -2 10.38 -2 8 C-2.33 8 -2.66 8 -3 8 Z " fill="#FBFDFD" transform="translate(205,38)"/>
<path d="M0 0 C2.26473044 4.24636958 2.10854228 7.94344467 2.00390625 12.6171875 C1.99968843 15.19005618 2.33710835 17.5141563 3 20 C2.01 20.33 1.02 20.66 0 21 C-0.33 21.66 -0.66 22.32 -1 23 C-2.98 23 -4.96 23 -7 23 C-6.98839844 22.40832031 -6.97679687 21.81664063 -6.96484375 21.20703125 C-6.91677614 16.99768215 -6.93993117 13.1077667 -8 9 C-10.57146057 11.57146057 -10.80117997 13.6050417 -11.625 17.125 C-12.01558594 18.76855469 -12.01558594 18.76855469 -12.4140625 20.4453125 C-12.60742188 21.28835937 -12.80078125 22.13140625 -13 23 C-14.98 23 -16.96 23 -19 23 C-18.54034292 15.69303751 -17.11670277 9.00242552 -15 2 C-9.77487721 0.53329887 -5.4185766 -0.22577402 0 0 Z M-7 1 C-7 1.33 -7 1.66 -7 2 C-5.02 2 -3.04 2 -1 2 C-1 1.67 -1 1.34 -1 1 C-2.98 1 -4.96 1 -7 1 Z M-6 9 C-6 10.65 -6 12.3 -6 14 C-5.67 14 -5.34 14 -5 14 C-5 12.35 -5 10.7 -5 9 C-5.33 9 -5.66 9 -6 9 Z " fill="#D4D5D6" transform="translate(330,38)"/>
<path d="M0 0 C2.56387767 5.2193224 3.57342223 8.57384741 1.8125 14.17578125 C0.62764375 16.83601139 -1.04887431 18.86005569 -3 21 C-3.33 21.66 -3.66 22.32 -4 23 C-6.97 23 -9.94 23 -13 23 C-16.57292527 17.64061209 -17.72862988 14.45357898 -17 8 C-15.36919208 4.33068217 -13.54566411 1.9165752 -10 0 C-3.08115543 -1.54057772 -3.08115543 -1.54057772 0 0 Z M-10 7 C-9.67 9.31 -9.34 11.62 -9 14 C-8.01 14.33 -7.02 14.66 -6 15 C-5.67 14.01 -5.34 13.02 -5 12 C-2.83125748 12.50603992 -1.00032373 12.99983813 1 14 C1 12.02 1 10.04 1 8 C-0.65 8 -2.3 8 -4 8 C-4 7.01 -4 6.02 -4 5 C-6.46278801 5 -7.85224119 5.85452863 -10 7 Z M-11 10 C-11 11.65 -11 13.3 -11 15 C-10.67 15 -10.34 15 -10 15 C-10 13.35 -10 11.7 -10 10 C-10.33 10 -10.66 10 -11 10 Z M-12 21 C-12 21.33 -12 21.66 -12 22 C-9.69 22 -7.38 22 -5 22 C-5 21.67 -5 21.34 -5 21 C-7.31 21 -9.62 21 -12 21 Z " fill="#FCFDFC" transform="translate(146,40)"/>
<path d="M0 0 C1.65 0 3.3 0 5 0 C6.28317892 3.84953676 6.06643637 6.94738135 6 11 C5.01 11.33 4.02 11.66 3 12 C3 13.65 3 15.3 3 17 C3.66 17 4.32 17 5 17 C4.54177532 20.46941546 4.10868317 23.67395049 3 27 C-2.53620678 27.32565922 -3.97599013 27.01440592 -9 24 C-8.01 18.39 -7.02 12.78 -6 7 C-4.68 6.67 -3.36 6.34 -2 6 C-0.6954344 3.00384054 -0.6954344 3.00384054 0 0 Z M-5 11 C-4 15 -4 15 -4 15 Z M-6 15 C-6 16.65 -6 18.3 -6 20 C-5.67 20 -5.34 20 -5 20 C-5 18.35 -5 16.7 -5 15 C-5.33 15 -5.66 15 -6 15 Z M1 17 C2 20 2 20 2 20 Z " fill="#D2D2D5" transform="translate(296,34)"/>
<path d="M0 0 C3.96 0 7.92 0 12 0 C13.41601562 3.07617188 13.41601562 3.07617188 14.83203125 6.15234375 C15.93600134 8.33029489 15.93600134 8.33029489 19 9 C20.125 11 20.125 11 21 13 C21.33 13.33 21.66 13.66 22 14 C22.04092937 16.33297433 22.04241723 18.66705225 22 21 C17.25 21.125 17.25 21.125 15 20 C15 19.01 15 18.02 15 17 C14.01 16.67 13.02 16.34 12 16 C11.5875 14.845 11.175 13.69 10.75 12.5 C10.1725 11.345 9.595 10.19 9 9 C5.41136476 7.9384058 5.41136476 7.9384058 2 8 C2 5.69 2 3.38 2 1 C1.34 0.67 0.68 0.34 0 0 Z " fill="#499FDE" transform="translate(45,26)"/>
<path d="M0 0 C2.31 0 4.62 0 7 0 C6.30654365 6.2484067 5.20358931 12.34403221 3.9375 18.5 C3.75123047 19.4178125 3.56496094 20.335625 3.37304688 21.28125 C2.91801873 23.52138854 2.46028733 25.76093726 2 28 C-0.31 28 -2.62 28 -5 28 C-3.35793557 18.66212692 -1.71200057 9.32536783 0 0 Z " fill="#FCFDFD" transform="translate(183,33)"/>
<path d="M0 0 C1.4540625 0.0309375 1.4540625 0.0309375 2.9375 0.0625 C2.31672374 6.53817652 1.26933542 12.77412243 -0.125 19.125 C-0.31126953 19.99060547 -0.49753906 20.85621094 -0.68945312 21.74804688 C-1.14316267 23.85372451 -1.60226004 25.95824007 -2.0625 28.0625 C-4.3725 28.0625 -6.6825 28.0625 -9.0625 28.0625 C-8.25633358 23.58216905 -7.44151403 19.10345575 -6.625 14.625 C-6.39490234 13.34560547 -6.16480469 12.06621094 -5.92773438 10.74804688 C-5.70537109 9.53310547 -5.48300781 8.31816406 -5.25390625 7.06640625 C-5.04967041 5.94049072 -4.84543457 4.8145752 -4.63500977 3.65454102 C-3.84515571 0.07847257 -3.84515571 0.07847257 0 0 Z " fill="#FDFDFD" transform="translate(177.0625,32.9375)"/>
<path d="M0 0 C0.99 0.33 1.98 0.66 3 1 C2.56234307 3.97606712 1.95172834 6.08849804 0.5 8.75 C-3.10750412 16.56625892 -1.84930871 23.82330448 0 32 C-0.66 32 -1.32 32 -2 32 C-1.67 32.99 -1.34 33.98 -1 35 C-2.8125 34.9375 -2.8125 34.9375 -5 34 C-9.32529221 27.51206169 -8.4580005 19.50416212 -8 12 C-7.67 11.01 -7.34 10.02 -7 9 C-6.34 9 -5.68 9 -5 9 C-4.731875 8.2575 -4.46375 7.515 -4.1875 6.75 C-3.05770579 4.13363446 -1.79106798 2.19812889 0 0 Z " fill="#F6F6F7" transform="translate(30,26)"/>
<path d="M0 0 C-3.9813783 1.3271261 -7.85045227 1.06915913 -12 1 C-11.34 1.33 -10.68 1.66 -10 2 C-10 4.64 -10 7.28 -10 10 C-11.32 9.67 -12.64 9.34 -14 9 C-14.99 12.96 -15.98 16.92 -17 21 C-18.98 21.33 -20.96 21.66 -23 22 C-24.5029278 19.46875317 -25.2006987 17.79254012 -24.46484375 14.88671875 C-23.7028501 12.89135862 -22.89496636 10.93909378 -22 9 C-21.34 9 -20.68 9 -20 9 C-19.54625 8.0925 -19.0925 7.185 -18.625 6.25 C-18.08875 5.1775 -17.5525 4.105 -17 3 C-16.690625 2.236875 -16.38125 1.47375 -16.0625 0.6875 C-15 -1 -15 -1 -13.375 -1.75 C-4.09090909 -2.72727273 -4.09090909 -2.72727273 0 0 Z " fill="#F0F4F5" transform="translate(57,25)"/>
<path d="M0 0 C3.81262547 9.59964628 4.04417296 16.40757059 0.16796875 26.03125 C-1 28 -1 28 -4 29 C-5.98313833 24.26250289 -5.89118563 22.62289822 -4 18 C-3.44341578 11.96003047 -4.01399203 6.7097729 -6 1 C-3 0 -3 0 0 0 Z " fill="#F4F5F7" transform="translate(75,32)"/>
<path d="M0 0 C0.33 0.66 0.66 1.32 1 2 C1.66 2.33 2.32 2.66 3 3 C3 12.57 3 22.14 3 32 C2.67 31.01 2.34 30.02 2 29 C-0.50447516 27.78130071 -0.50447516 27.78130071 -3 27 C-3.08676908 22.87513162 -3.14031295 18.75049616 -3.1875 14.625 C-3.21263672 13.449375 -3.23777344 12.27375 -3.26367188 11.0625 C-3.27333984 9.94101562 -3.28300781 8.81953125 -3.29296875 7.6640625 C-3.3086792 6.62717285 -3.32438965 5.5902832 -3.34057617 4.52197266 C-3.22818604 3.68972168 -3.1157959 2.8574707 -3 2 C-2.01 1.34 -1.02 0.68 0 0 Z M-1 7 C-1.33 7.66 -1.66 8.32 -2 9 C-1.34 9 -0.68 9 0 9 C-0.33 8.34 -0.66 7.68 -1 7 Z M1 13 C1 17.95 1 22.9 1 28 C1.33 28 1.66 28 2 28 C2 23.05 2 18.1 2 13 C1.67 13 1.34 13 1 13 Z " fill="#EAEBED" transform="translate(44,48)"/>
<path d="M0 0 C1.98 0 3.96 0 6 0 C4.07289294 14.78132118 4.07289294 14.78132118 2 21 C0.02 21 -1.96 21 -4 21 C-3.54034292 13.69303751 -2.11670277 7.00242552 0 0 Z " fill="#CED1D3" transform="translate(305,40)"/>
<path d="M0 0 C0.99 0.495 0.99 0.495 2 1 C2.0825 2.27875 2.165 3.5575 2.25 4.875 C2.40612556 7.03689054 2.40612556 7.03689054 3 9 C6.63162228 11.64117984 9.54938272 12.39270152 14 12 C13.34 13.65 12.68 15.3 12 17 C13.32 17.33 14.64 17.66 16 18 C13.35541621 19.32229189 11.32238699 19.09677194 8.375 19.0625 C7.37210937 19.05347656 6.36921875 19.04445313 5.3359375 19.03515625 C4.56507813 19.02355469 3.79421875 19.01195313 3 19 C-1.0449982 13.10104429 -0.27748976 6.92696672 0 0 Z " fill="#D9DCDD" transform="translate(268,43)"/>
<path d="M0 0 C3.96 0 7.92 0 12 0 C15 5.625 15 5.625 15 9 C14.01 9.33 13.02 9.66 12 10 C11.34 8.68 10.68 7.36 10 6 C9.34 6.66 8.68 7.32 8 8 C7.01 8.33 6.02 8.66 5 9 C4.01 8.34 3.02 7.68 2 7 C1.8125 3.875 1.8125 3.875 2 1 C1.34 0.67 0.68 0.34 0 0 Z " fill="#4BA2D9" transform="translate(45,26)"/>
<path d="M0 0 C0.99 0 1.98 0 3 0 C3 6.6 3 13.2 3 20 C1.35 20.66 -0.3 21.32 -2 22 C-1.86181468 18.52048477 -1.71317399 15.04149505 -1.5625 11.5625 C-1.52318359 10.56927734 -1.48386719 9.57605469 -1.44335938 8.55273438 C-1.40146484 7.60849609 -1.35957031 6.66425781 -1.31640625 5.69140625 C-1.27974854 4.81685791 -1.24309082 3.94230957 -1.20532227 3.04125977 C-1 1 -1 1 0 0 Z " fill="#EBEBED" transform="translate(55,57)"/>
<path d="M0 0 C1.32 0.33 2.64 0.66 4 1 C4.32374517 6.50366792 4.53286034 10.43672206 1 15 C-1.475 14.01 -1.475 14.01 -4 13 C-3.27991594 8.39146203 -1.68704061 4.32762591 0 0 Z " fill="#D3D3D5" transform="translate(262,47)"/>
<path d="M0 0 C0.33 0.66 0.66 1.32 1 2 C1.66 1.67 2.32 1.34 3 1 C4.67654729 1.27942455 6.34608154 1.60828247 8 2 C7 5 7 5 5 6.0625 C4.34 6.371875 3.68 6.68125 3 7 C2.67 7.66 2.34 8.32 2 9 C1.01 8.67 0.02 8.34 -1 8 C-1 7.01 -1 6.02 -1 5 C-4.19902639 4.91113816 -6.92677456 5.08941469 -10 6 C-10.33 5.01 -10.66 4.02 -11 3 C-7.48550811 -0.37391222 -4.73940561 -0.27342725 0 0 Z " fill="#DADADA" transform="translate(346,38)"/>
<path d="M0 0 C0.33 0 0.66 0 1 0 C1.04898437 0.99902344 1.09796875 1.99804688 1.1484375 3.02734375 C1.22320313 4.31769531 1.29796875 5.60804687 1.375 6.9375 C1.44460937 8.22527344 1.51421875 9.51304688 1.5859375 10.83984375 C1.72257812 11.88269531 1.85921875 12.92554688 2 14 C2.66 14.33 3.32 14.66 4 15 C4 13.35 4 11.7 4 10 C4.66 9.67 5.32 9.34 6 9 C6.66 12.63 7.32 16.26 8 20 C7.34 20 6.68 20 6 20 C6.33 20.99 6.66 21.98 7 23 C5.1875 22.9375 5.1875 22.9375 3 22 C-1.36059201 15.45911198 -0.26217922 7.54493522 0 0 Z " fill="#E3EAEE" transform="translate(22,38)"/>
<path d="M0 0 C1.98 0 3.96 0 6 0 C5.40049704 3.68266103 4.75241109 7.34543185 4 11 C3.34 11 2.68 11 2 11 C1.67 11.99 1.34 12.98 1 14 C0.34 14 -0.32 14 -1 14 C-1.18451025 4.58997722 -1.18451025 4.58997722 0 0 Z " fill="#CCCDD0" transform="translate(315,43)"/>
<path d="M0 0 C1.98 0 3.96 0 6 0 C7.15941038 3.47823115 6.70820884 5.45895578 6 9 C1.25 10.125 1.25 10.125 -1 9 C-0.67 6.03 -0.34 3.06 0 0 Z " fill="#DDDFE0" transform="translate(241,31)"/>
<path d="M0 0 C0.33 0 0.66 0 1 0 C1 5.28 1 10.56 1 16 C-0.32 15.34 -1.64 14.68 -3 14 C-3 10.37 -3 6.74 -3 3 C-2.01 2.67 -1.02 2.34 0 2 C0 1.34 0 0.68 0 0 Z " fill="#E4E6E7" transform="translate(65,55)"/>
<path d="M0 0 C0.99 0 1.98 0 3 0 C3 4.29 3 8.58 3 13 C1.68 12.67 0.36 12.34 -1 12 C-1.02687279 10.18757948 -1.04633715 8.37504767 -1.0625 6.5625 C-1.07410156 5.55316406 -1.08570313 4.54382812 -1.09765625 3.50390625 C-1 1 -1 1 0 0 Z " fill="#EDF0F1" transform="translate(34,57)"/>
<path d="M0 0 C3.9032844 -0.13582858 5.75835249 -0.09469209 9.0703125 2.11328125 C5.0889342 3.44040735 1.21986023 3.18244038 -2.9296875 3.11328125 C-2.2696875 3.44328125 -1.6096875 3.77328125 -0.9296875 4.11328125 C-0.9296875 6.75328125 -0.9296875 9.39328125 -0.9296875 12.11328125 C-1.5896875 11.78328125 -2.2496875 11.45328125 -2.9296875 11.11328125 C-2.5996875 9.13328125 -2.2696875 7.15328125 -1.9296875 5.11328125 C-2.9196875 5.11328125 -3.9096875 5.11328125 -4.9296875 5.11328125 C-5.9196875 6.59828125 -5.9196875 6.59828125 -6.9296875 8.11328125 C-7.5896875 7.78328125 -8.2496875 7.45328125 -8.9296875 7.11328125 C-6.50299387 1.41055122 -6.50299387 1.41055122 -4.2421875 0.23828125 C-2.82796064 0.16183655 -1.4138573 0.08299972 0 0 Z " fill="#DEE8EE" transform="translate(47.9296875,22.88671875)"/>
<path d="M0 0 C0.33 0.66 0.66 1.32 1 2 C1.66 2.33 2.32 2.66 3 3 C3 5.97 3 8.94 3 12 C2.01 12.495 2.01 12.495 1 13 C1 12.01 1 11.02 1 10 C-0.32 9.67 -1.64 9.34 -3 9 C-3.1875 5.625 -3.1875 5.625 -3 2 C-2.01 1.34 -1.02 0.68 0 0 Z M-1 7 C-1.33 7.66 -1.66 8.32 -2 9 C-1.34 9 -0.68 9 0 9 C-0.33 8.34 -0.66 7.68 -1 7 Z " fill="#A3C0D6" transform="translate(44,48)"/>
<path d="M0 0 C1.98 0 3.96 0 6 0 C5.54177532 3.46941546 5.10868317 6.67395049 4 10 C1.69 10 -0.62 10 -3 10 C-3.66 8.68 -4.32 7.36 -5 6 C-4.34 5.67 -3.68 5.34 -3 5 C-3 5.99 -3 6.98 -3 8 C-1.68 8 -0.36 8 1 8 C0.67 5.36 0.34 2.72 0 0 Z " fill="#DEE0E1" transform="translate(295,51)"/>
<path d="M0 0 C0.99 0.33 1.98 0.66 3 1 C4.97683401 5.3698436 5.36631191 9.23794521 5 14 C4.34 14.66 3.68 15.32 3 16 C2.67 13.69 2.34 11.38 2 9 C1.34 9.66 0.68 10.32 0 11 C0 10.01 0 9.02 0 8 C-0.66 8 -1.32 8 -2 8 C-1.67 7.01 -1.34 6.02 -1 5 C-0.34 5.33 0.32 5.66 1 6 C0.67 4.02 0.34 2.04 0 0 Z " fill="#DBDADD" transform="translate(263,39)"/>
<path d="M0 0 C0.66 0 1.32 0 2 0 C1.67 2.31 1.34 4.62 1 7 C0.38125 7.061875 -0.2375 7.12375 -0.875 7.1875 C-3.27761141 7.828919 -3.27761141 7.828919 -4.25 10.5625 C-4.4975 11.366875 -4.745 12.17125 -5 13 C-6.1875 11.5 -6.1875 11.5 -7 9 C-6.27101296 6.21175762 -5.1843275 3.62334908 -4 1 C-3.34 1.66 -2.68 2.32 -2 3 C-1.34 2.01 -0.68 1.02 0 0 Z " fill="#EEF6F8" transform="translate(39,33)"/>
<path d="M0 0 C0.99 0 1.98 0 3 0 C3.66 2.97 4.32 5.94 5 9 C4.01 9.33 3.02 9.66 2 10 C1.67 10.66 1.34 11.32 1 12 C-0.98 12 -2.96 12 -5 12 C-4.67 10.68 -4.34 9.36 -4 8 C-4 8.66 -4 9.32 -4 10 C-2.68 10 -1.36 10 0 10 C0 6.7 0 3.4 0 0 Z " fill="#DBDADC" transform="translate(328,49)"/>
<path d="M0 0 C2.0625 0.4375 2.0625 0.4375 4 1 C3.67 3.64 3.34 6.28 3 9 C1.68 9.33 0.36 9.66 -1 10 C-1.02689216 8.52093108 -1.04634621 7.04172517 -1.0625 5.5625 C-1.07410156 4.73878906 -1.08570313 3.91507813 -1.09765625 3.06640625 C-1 1 -1 1 0 0 Z " fill="#92CCEA" transform="translate(49,49)"/>
<path d="M0 0 C1.32 0.33 2.64 0.66 4 1 C4 3.64 4 6.28 4 9 C2.68 9.33 1.36 9.66 0 10 C0 6.7 0 3.4 0 0 Z " fill="#E8E8E8" transform="translate(48,70)"/>
<path d="M0 0 C1.98 0 3.96 0 6 0 C5.67 2.97 5.34 5.94 5 9 C4.34 8.34 3.68 7.68 3 7 C3 6.01 3 5.02 3 4 C2.34 3.67 1.68 3.34 1 3 C0.34 4.98 -0.32 6.96 -1 9 C-2.60031344 5.79937313 -1.03173691 3.27728194 0 0 Z " fill="#DADDDE" transform="translate(305,40)"/>
<path d="M0 0 C0.66 0 1.32 0 2 0 C1.34 2.97 0.68 5.94 0 9 C-1.98 9.33 -3.96 9.66 -6 10 C-5.34 7.69 -4.68 5.38 -4 3 C-2.68 3 -1.36 3 0 3 C0 2.01 0 1.02 0 0 Z " fill="#ADC1D4" transform="translate(40,37)"/>
<path d="M0 0 C1.98 0 3.96 0 6 0 C6 1.65 6 3.3 6 5 C3.69 5.33 1.38 5.66 -1 6 C-0.67 4.02 -0.34 2.04 0 0 Z " fill="#E4E4E7" transform="translate(306,33)"/>
<path d="M0 0 C0.33 0 0.66 0 1 0 C0.56408073 6.25318671 -0.33219783 12.39759966 -1.4375 18.5625 C-1.55971924 19.27728516 -1.68193848 19.99207031 -1.80786133 20.72851562 C-2.13645955 22.49982873 -2.56059066 24.25287484 -3 26 C-3.66 26.33 -4.32 26.66 -5 27 C-3.8322916 17.83692346 -2.23443486 8.96753189 0 0 Z " fill="#FDFEFE" transform="translate(181,33)"/>
<path d="M0 0 C0.99 0.33 1.98 0.66 3 1 C2.67 3.31 2.34 5.62 2 8 C-2 8 -2 8 -4 7 C-4 5.68 -4 4.36 -4 3 C-2.68 2.34 -1.36 1.68 0 1 C0 0.67 0 0.34 0 0 Z " fill="#CBCBCD" transform="translate(262,53)"/>
<path d="M0 0 C2 3 2 3 2 6 C1.34 6 0.68 6 0 6 C0.33 6.99 0.66 7.98 1 9 C-0.32 8.67 -1.64 8.34 -3 8 C-3.33 6.35 -3.66 4.7 -4 3 C-2.68 2.01 -1.36 1.02 0 0 Z " fill="#559DDE" transform="translate(28,52)"/>
<path d="M0 0 C0.66 0.33 1.32 0.66 2 1 C1.67 3.31 1.34 5.62 1 8 C-0.32 8.33 -1.64 8.66 -3 9 C-3.33 7.02 -3.66 5.04 -4 3 C-2.68 2.01 -1.36 1.02 0 0 Z " fill="#C7CEDB" transform="translate(36,48)"/>
<path d="M0 0 C1.32 0.66 2.64 1.32 4 2 C3.67 3.65 3.34 5.3 3 7 C2.01 7.33 1.02 7.66 0 8 C-0.66 6.02 -1.32 4.04 -2 2 C-1.34 1.34 -0.68 0.68 0 0 Z " fill="#68A2DA" transform="translate(71,53)"/>
<path d="M0 0 C1.65 0 3.3 0 5 0 C5.3125 2.25 5.3125 2.25 5 5 C2.5 7.3125 2.5 7.3125 0 9 C0 6.03 0 3.06 0 0 Z " fill="#CED2D5" transform="translate(62,48)"/>
<path d="M0 0 C0.99 0.33 1.98 0.66 3 1 C3.79953138 4.28696233 4.09658936 5.71023192 3 9 C2.01 8.67 1.02 8.34 0 8 C-0.79953138 4.71303767 -1.09658936 3.28976808 0 0 Z " fill="#DEE3EC" transform="translate(55,47)"/>
<path d="M0 0 C0.66 0.33 1.32 0.66 2 1 C2 1.66 2 2.32 2 3 C2.66 3.33 3.32 3.66 4 4 C3.01 6.64 2.02 9.28 1 12 C0.34 11.67 -0.32 11.34 -1 11 C-0.67 7.37 -0.34 3.74 0 0 Z " fill="#CCCED0" transform="translate(250,47)"/>
<path d="M0 0 C0.66 0 1.32 0 2 0 C2.18451025 11.52164009 2.18451025 11.52164009 1 17 C0.67 17 0.34 17 0 17 C0 11.39 0 5.78 0 0 Z " fill="#EBEEE6" transform="translate(59,58)"/>
<path d="M0 0 C2 4 2 4 1.625 6.25 C1.41875 6.8275 1.2125 7.405 1 8 C4.0745356 7.2236068 4.0745356 7.2236068 6 5 C5.67 6.65 5.34 8.3 5 10 C3.02 10 1.04 10 -1 10 C-0.67 6.7 -0.34 3.4 0 0 Z " fill="#E1E2E9" transform="translate(302,51)"/>
<path d="M0 0 C0.33 0 0.66 0 1 0 C0.51358785 6.84817102 -0.35993952 13.33042073 -2 20 C-2.66 19.67 -3.32 19.34 -4 19 C-2.02 9.595 -2.02 9.595 0 0 Z " fill="#E3E5E6" transform="translate(312,40)"/>
<path d="M0 0 C0.66 0 1.32 0 2 0 C0.84826645 2.46800047 -0.04783565 4.04783565 -2 6 C-4.6015625 6.1953125 -4.6015625 6.1953125 -7.625 6.125 C-9.12933594 6.09792969 -9.12933594 6.09792969 -10.6640625 6.0703125 C-11.43492187 6.04710938 -12.20578125 6.02390625 -13 6 C-13 5.67 -13 5.34 -13 5 C-12.14535156 4.80664062 -11.29070312 4.61328125 -10.41015625 4.4140625 C-9.30542969 4.15367188 -8.20070313 3.89328125 -7.0625 3.625 C-5.96035156 3.36976562 -4.85820312 3.11453125 -3.72265625 2.8515625 C-2.82417969 2.57054688 -1.92570312 2.28953125 -1 2 C-0.67 1.34 -0.34 0.68 0 0 Z " fill="#DADBDF" transform="translate(348,62)"/>
<path d="M0 0 C0.99 0.33 1.98 0.66 3 1 C3 2.65 3 4.3 3 6 C1.35 6 -0.3 6 -2 6 C-2 4.35 -2 2.7 -2 1 C-1.34 0.67 -0.68 0.34 0 0 Z " fill="#4D95C3" transform="translate(64,41)"/>
<path d="M0 0 C1.25 1.75 1.25 1.75 1.25 4.75 C0.26 5.08 -0.73 5.41 -1.75 5.75 C-3.07 3.77 -4.39 1.79 -5.75 -0.25 C-2.22297297 -1.58783784 -2.22297297 -1.58783784 0 0 Z " fill="#4CA2F1" transform="translate(58.75,30.25)"/>
<path d="M0 0 C0.66 0 1.32 0 2 0 C2 5.28 2 10.56 2 16 C1.67 16 1.34 16 1 16 C0.22750855 10.59255982 -0.09752461 5.46137814 0 0 Z " fill="#EFF1F2" transform="translate(38,58)"/>
<path d="M0 0 C1.258125 -0.04125 2.51625 -0.0825 3.8125 -0.125 C4.52019531 -0.14820312 5.22789063 -0.17140625 5.95703125 -0.1953125 C8 0 8 0 11 2 C6.91556885 3.53166168 3.20544343 2.63081652 -1 2 C-0.67 1.34 -0.34 0.68 0 0 Z " fill="#BBD1E2" transform="translate(46,23)"/>
<path d="M0 0 C0.66 0 1.32 0 2 0 C3.09658936 3.28976808 2.79953138 4.71303767 2 8 C1.01 7.67 0.02 7.34 -1 7 C-0.67 4.69 -0.34 2.38 0 0 Z " fill="#CBCACD" transform="translate(239,52)"/>
<path d="M0 0 C0.66 0 1.32 0 2 0 C2.1875 2.875 2.1875 2.875 2 6 C1.01 6.66 0.02 7.32 -1 8 C-1.04241723 5.66705225 -1.04092937 3.33297433 -1 1 C-0.67 0.67 -0.34 0.34 0 0 Z " fill="#E8E9E5" transform="translate(42,49)"/>
<path d="M0 0 C1.32 0.33 2.64 0.66 4 1 C3.67 2.32 3.34 3.64 3 5 C2.01 5 1.02 5 0 5 C0 3.35 0 1.7 0 0 Z " fill="#E4E9EC" transform="translate(48,62)"/>
<path d="M0 0 C0.99 0 1.98 0 3 0 C3 1.98 3 3.96 3 6 C2.01 6 1.02 6 0 6 C0 4.02 0 2.04 0 0 Z " fill="#5CABE7" transform="translate(48,53)"/>
<path d="M0 0 C0.66 0 1.32 0 2 0 C2 0.66 2 1.32 2 2 C3.32 2 4.64 2 6 2 C5.34 3.32 4.68 4.64 4 6 C2 4.6875 2 4.6875 0 3 C0 2.01 0 1.02 0 0 Z " fill="#CEEAF3" transform="translate(71,50)"/>
<path d="M0 0 C0.66 0.66 1.32 1.32 2 2 C1.625 5.625 1.625 5.625 1 9 C0.01 9 -0.98 9 -2 9 C-1.34 6.03 -0.68 3.06 0 0 Z " fill="#DDDFE1" transform="translate(314,42)"/>
<path d="M0 0 C1.98 0 3.96 0 6 0 C6 0.66 6 1.32 6 2 C4.68 2 3.36 2 2 2 C1.67 2.99 1.34 3.98 1 5 C0.67 3.35 0.34 1.7 0 0 Z " fill="#E1E2E3" transform="translate(332,61)"/>
<path d="M0 0 C1.65 0 3.3 0 5 0 C4.67 1.32 4.34 2.64 4 4 C2.35 4 0.7 4 -1 4 C-0.67 2.68 -0.34 1.36 0 0 Z " fill="#E6E6E9" transform="translate(296,34)"/>
<path d="M0 0 C2.36574234 3.5486135 2.10865265 4.5764525 1.625 8.6875 C1.51414063 9.68136719 1.40328125 10.67523438 1.2890625 11.69921875 C1.19367187 12.45847656 1.09828125 13.21773437 1 14 C0.67 14 0.34 14 0 14 C0 9.38 0 4.76 0 0 Z " fill="#D7DBF1" transform="translate(31,55)"/>
<path d="M0 0 C0.33 0 0.66 0 1 0 C1 4.95 1 9.9 1 15 C0.67 15 0.34 15 0 15 C0 10.05 0 5.1 0 0 Z " fill="#FAFAFA" transform="translate(20,38)"/>
<path d="M0 0 C0.66 0.66 1.32 1.32 2 2 C1.54625 2.433125 1.0925 2.86625 0.625 3.3125 C-1.20024334 5.10798342 -1.20024334 5.10798342 -3 8 C-3.33 7.01 -3.66 6.02 -4 5 C-2.0625 2.3125 -2.0625 2.3125 0 0 Z " fill="#EAE7F0" transform="translate(131,40)"/>
<path d="M0 0 C3.63 0 7.26 0 11 0 C11 0.33 11 0.66 11 1 C7.37 1 3.74 1 0 1 C0 0.67 0 0.34 0 0 Z " fill="#C0C0C9" transform="translate(335,69)"/>
<path d="M0 0 C0.33 0 0.66 0 1 0 C1 3.63 1 7.26 1 11 C0.67 11 0.34 11 0 11 C0 7.37 0 3.74 0 0 Z " fill="#F7FDFE" transform="translate(67,58)"/>
<path d="M0 0 C1.125 1.6875 1.125 1.6875 2 4 C1.125 6.75 1.125 6.75 0 9 C-1.10844919 5.67465243 -0.84454356 3.37817425 0 0 Z " fill="#E9EAEC" transform="translate(247,40)"/>
<path d="M0 0 C2.97 0 5.94 0 9 0 C9 0.33 9 0.66 9 1 C5.7 1.33 2.4 1.66 -1 2 C-0.67 1.34 -0.34 0.68 0 0 Z " fill="#FEFEFF" transform="translate(135,38)"/>
<path d="M0 0 C1.20628008 2.33214148 2.1654738 4.49642139 3 7 C2.01 7.495 2.01 7.495 1 8 C0.67 5.36 0.34 2.72 0 0 Z " fill="#D3DBEB" transform="translate(29,47)"/>
<path d="M0 0 C0.33 0 0.66 0 1 0 C1 3.3 1 6.6 1 10 C0.67 10 0.34 10 0 10 C0 6.7 0 3.4 0 0 Z " fill="#EAFCFC" transform="translate(70,40)"/>
<path d="M0 0 C2.97 0 5.94 0 9 0 C9 0.33 9 0.66 9 1 C6.03 1 3.06 1 0 1 C0 0.67 0 0.34 0 0 Z " fill="#CFD1D2" transform="translate(273,62)"/>
<path d="M0 0 C2.97 0 5.94 0 9 0 C9 0.33 9 0.66 9 1 C6.03 1 3.06 1 0 1 C0 0.67 0 0.34 0 0 Z " fill="#FCFEFF" transform="translate(194,62)"/>
<path d="M0 0 C0.33 0 0.66 0 1 0 C1 2.97 1 5.94 1 9 C0.67 9 0.34 9 0 9 C0 6.03 0 3.06 0 0 Z " fill="#E1E2E3" transform="translate(79,41)"/>
<path d="M0 0 C2.97 0 5.94 0 9 0 C9 0.33 9 0.66 9 1 C6.03 1 3.06 1 0 1 C0 0.67 0 0.34 0 0 Z " fill="#E2E2E4" transform="translate(254,38)"/>
<path d="M0 0 C0.33 0 0.66 0 1 0 C1 2.64 1 5.28 1 8 C0.67 8 0.34 8 0 8 C0 5.36 0 2.72 0 0 Z " fill="#FCFFFE" transform="translate(127,48)"/>
<path d="M0 0 C1.0625 1.8125 1.0625 1.8125 2 4 C1.67 4.99 1.34 5.98 1 7 C0.67 4.69 0.34 2.38 0 0 Z " fill="#BEC0BF" transform="translate(29,38)"/>
<path d="M0 0 C2.31 0 4.62 0 7 0 C7 0.33 7 0.66 7 1 C4.69 1 2.38 1 0 1 C0 0.67 0 0.34 0 0 Z " fill="#C4C5D0" transform="translate(292,62)"/>
<path d="M0 0 C0.33 0 0.66 0 1 0 C1 2.31 1 4.62 1 7 C0.67 7 0.34 7 0 7 C0 4.69 0 2.38 0 0 Z " fill="#FEFDFE" transform="translate(105,39)"/>
<path d="M0 0 C2.31 0 4.62 0 7 0 C7 0.33 7 0.66 7 1 C4.69 1 2.38 1 0 1 C0 0.67 0 0.34 0 0 Z " fill="#FEFEFE" transform="translate(95,31)"/>
<path d="M0 0 C1.98 0 3.96 0 6 0 C6 0.33 6 0.66 6 1 C4.02 1 2.04 1 0 1 C0 0.67 0 0.34 0 0 Z " fill="#F9F9FB" transform="translate(323,62)"/>
<path d="M0 0 C1.98 0 3.96 0 6 0 C6 0.33 6 0.66 6 1 C4.02 1 2.04 1 0 1 C0 0.67 0 0.34 0 0 Z " fill="#F9FBFC" transform="translate(236,62)"/>
<path d="M0 0 C1.98 0 3.96 0 6 0 C6 0.33 6 0.66 6 1 C4.02 1 2.04 1 0 1 C0 0.67 0 0.34 0 0 Z " fill="#FBFBFB" transform="translate(107,62)"/>
<path d="M0 0 C1.98 0 3.96 0 6 0 C6 0.33 6 0.66 6 1 C4.02 1 2.04 1 0 1 C0 0.67 0 0.34 0 0 Z " fill="#FDFEFE" transform="translate(81,62)"/>
<path d="M0 0 C0.33 0 0.66 0 1 0 C1 1.98 1 3.96 1 6 C0.67 6 0.34 6 0 6 C0 4.02 0 2.04 0 0 Z " fill="#E3E3E3" transform="translate(219,54)"/>
<path d="M0 0 C0.66 1.32 1.32 2.64 2 4 C1.01 4.495 1.01 4.495 0 5 C0 3.35 0 1.7 0 0 Z " fill="#FBFEFD" transform="translate(107,52)"/>
<path d="M0 0 C0.33 0 0.66 0 1 0 C1 1.98 1 3.96 1 6 C0.67 6 0.34 6 0 6 C0 4.02 0 2.04 0 0 Z " fill="#AFAFAF" transform="translate(353,51)"/>
<path d="M0 0 C0.33 1.32 0.66 2.64 1 4 C0.34 3.67 -0.32 3.34 -1 3 C-0.67 2.01 -0.34 1.02 0 0 Z " fill="#B4D2D2" transform="translate(69,50)"/>
<path d="M0 0 C0.66 0 1.32 0 2 0 C2 1.32 2 2.64 2 4 C1.34 3.67 0.68 3.34 0 3 C0 2.01 0 1.02 0 0 Z " fill="#E5EAEE" transform="translate(38,50)"/>
<path d="M0 0 C0.33 0 0.66 0 1 0 C1 1.98 1 3.96 1 6 C0.67 6 0.34 6 0 6 C0 4.02 0 2.04 0 0 Z " fill="#C8C8C8" transform="translate(355,41)"/>
<path d="M0 0 C1.98 0 3.96 0 6 0 C6 0.33 6 0.66 6 1 C4.02 1 2.04 1 0 1 C0 0.67 0 0.34 0 0 Z " fill="#FFFFFF" transform="translate(110,38)"/>
<path d="M0 0 C0.33 0 0.66 0 1 0 C1 1.98 1 3.96 1 6 C0.67 6 0.34 6 0 6 C0 4.02 0 2.04 0 0 Z " fill="#B8B9BA" transform="translate(248,34)"/>
<path d="M0 0 C1.98 0 3.96 0 6 0 C6 0.33 6 0.66 6 1 C4.02 1 2.04 1 0 1 C0 0.67 0 0.34 0 0 Z " fill="#FFFFFF" transform="translate(306,31)"/>
<path d="M0 0 C1.98 0 3.96 0 6 0 C6 0.33 6 0.66 6 1 C4.02 1 2.04 1 0 1 C0 0.67 0 0.34 0 0 Z " fill="#FDFFFF" transform="translate(226,31)"/>
<path d="M0 0 C1.98 0 3.96 0 6 0 C6 0.33 6 0.66 6 1 C4.02 1 2.04 1 0 1 C0 0.67 0 0.34 0 0 Z " fill="#FFFFFF" transform="translate(184,31)"/>
<path d="M0 0 C1.98 0 3.96 0 6 0 C6 0.33 6 0.66 6 1 C4.02 1 2.04 1 0 1 C0 0.67 0 0.34 0 0 Z " fill="#FFFFFF" transform="translate(174,31)"/>
<path d="M0 0 C1.98 0 3.96 0 6 0 C6 0.33 6 0.66 6 1 C4.02 1 2.04 1 0 1 C0 0.67 0 0.34 0 0 Z " fill="#F1F1F3" transform="translate(51,15)"/>
<path d="M0 0 C0.33 0 0.66 0 1 0 C1 1.65 1 3.3 1 5 C0.67 5 0.34 5 0 5 C0 3.35 0 1.7 0 0 Z " fill="#F8F8F8" transform="translate(52,66)"/>
<path d="M0 0 C1.65 0 3.3 0 5 0 C5 0.33 5 0.66 5 1 C3.35 1 1.7 1 0 1 C0 0.67 0 0.34 0 0 Z " fill="#FAFCFD" transform="translate(312,62)"/>
<path d="M0 0 C1.65 0 3.3 0 5 0 C5 0.33 5 0.66 5 1 C3.35 1 1.7 1 0 1 C0 0.67 0 0.34 0 0 Z " fill="#FBFDF8" transform="translate(302,62)"/>
<path d="M0 0 C1.65 0 3.3 0 5 0 C5 0.33 5 0.66 5 1 C3.35 1 1.7 1 0 1 C0 0.67 0 0.34 0 0 Z " fill="#FEFEFE" transform="translate(221,62)"/>
<path d="M0 0 C1.65 0 3.3 0 5 0 C5 0.33 5 0.66 5 1 C3.35 1 1.7 1 0 1 C0 0.67 0 0.34 0 0 Z " fill="#FEFEFE" transform="translate(179,62)"/>
<path d="M0 0 C1.65 0 3.3 0 5 0 C5 0.33 5 0.66 5 1 C3.35 1 1.7 1 0 1 C0 0.67 0 0.34 0 0 Z " fill="#FFFFFF" transform="translate(169,62)"/>
<path d="M0 0 C1.65 0 3.3 0 5 0 C5 0.33 5 0.66 5 1 C3.35 1 1.7 1 0 1 C0 0.67 0 0.34 0 0 Z " fill="#FBFEFD" transform="translate(120,62)"/>
<path d="M0 0 C1.65 0 3.3 0 5 0 C5 0.33 5 0.66 5 1 C3.35 1 1.7 1 0 1 C0 0.67 0 0.34 0 0 Z " fill="#FDFDFD" transform="translate(101,62)"/>
<path d="M0 0 C0.33 0 0.66 0 1 0 C1 1.65 1 3.3 1 5 C0.67 5 0.34 5 0 5 C0 3.35 0 1.7 0 0 Z " fill="#E4F9FF" transform="translate(52,58)"/>
<path d="M0 0 C0.33 0 0.66 0 1 0 C1 1.65 1 3.3 1 5 C0.67 5 0.34 5 0 5 C0 3.35 0 1.7 0 0 Z " fill="#DEDDE0" transform="translate(244,55)"/>
<path d="M0 0 C0 0.99 0 1.98 0 3 C-0.66 2.67 -1.32 2.34 -2 2 C-1.34 1.34 -0.68 0.68 0 0 Z " fill="#FEFEFE" transform="translate(167,57)"/>
<path d="M0 0 C0.33 0 0.66 0 1 0 C1 1.65 1 3.3 1 5 C0.67 5 0.34 5 0 5 C0 3.35 0 1.7 0 0 Z " fill="#E1E1E2" transform="translate(229,53)"/>
<path d="M0 0 C0.33 0 0.66 0 1 0 C1 1.65 1 3.3 1 5 C0.67 5 0.34 5 0 5 C0 3.35 0 1.7 0 0 Z " fill="#FEFEFE" transform="translate(220,49)"/>
<path d="M0 0 C0.33 0 0.66 0 1 0 C1 1.65 1 3.3 1 5 C0.67 5 0.34 5 0 5 C0 3.35 0 1.7 0 0 Z " fill="#F3F3FA" transform="translate(187,51)"/>
<path d="M0 0 C0.33 0 0.66 0 1 0 C1 1.65 1 3.3 1 5 C0.67 5 0.34 5 0 5 C0 3.35 0 1.7 0 0 Z " fill="#D4D4D6" transform="translate(245,50)"/>
<path d="M0 0 C0.33 0 0.66 0 1 0 C1 1.65 1 3.3 1 5 C0.67 5 0.34 5 0 5 C0 3.35 0 1.7 0 0 Z " fill="#FBFBFC" transform="translate(320,49)"/>
<path d="M0 0 C0.33 0 0.66 0 1 0 C1 1.65 1 3.3 1 5 C0.67 5 0.34 5 0 5 C0 3.35 0 1.7 0 0 Z " fill="#9593AD" transform="translate(341,47)"/>
<path d="M0 0 C0.33 0 0.66 0 1 0 C1 1.65 1 3.3 1 5 C0.67 5 0.34 5 0 5 C0 3.35 0 1.7 0 0 Z " fill="#EAECEA" transform="translate(301,46)"/>
<path d="M0 0 C0.33 0 0.66 0 1 0 C1 1.65 1 3.3 1 5 C0.67 5 0.34 5 0 5 C0 3.35 0 1.7 0 0 Z " fill="#FCFCFD" transform="translate(299,46)"/>
<path d="M0 0 C0.33 0 0.66 0 1 0 C1 1.65 1 3.3 1 5 C0.67 5 0.34 5 0 5 C0 3.35 0 1.7 0 0 Z " fill="#58B4ED" transform="translate(68,41)"/>
<path d="M0 0 C0.99 1.485 0.99 1.485 2 3 C1.01 3.495 1.01 3.495 0 4 C0 2.68 0 1.36 0 0 Z " fill="#FCFDFE" transform="translate(189,41)"/>
<path d="M0 0 C0.33 0 0.66 0 1 0 C1 1.65 1 3.3 1 5 C0.67 5 0.34 5 0 5 C0 3.35 0 1.7 0 0 Z " fill="#D4D6D6" transform="translate(222,39)"/>
<path d="M0 0 C0.33 0 0.66 0 1 0 C1 1.65 1 3.3 1 5 C0.67 5 0.34 5 0 5 C0 3.35 0 1.7 0 0 Z " fill="#FDFDFD" transform="translate(170,39)"/>
<path d="M0 0 C1.65 0 3.3 0 5 0 C5 0.33 5 0.66 5 1 C3.35 1 1.7 1 0 1 C0 0.67 0 0.34 0 0 Z " fill="#FEFDFE" transform="translate(349,38)"/>
<path d="M0 0 C1.65 0 3.3 0 5 0 C5 0.33 5 0.66 5 1 C3.35 1 1.7 1 0 1 C0 0.67 0 0.34 0 0 Z " fill="#FFFFFF" transform="translate(315,38)"/>
<path d="M0 0 C0.33 0 0.66 0 1 0 C1 1.65 1 3.3 1 5 C0.67 5 0.34 5 0 5 C0 3.35 0 1.7 0 0 Z " fill="#FEFEFE" transform="translate(104,34)"/>
<path d="M0 0 C0.33 0 0.66 0 1 0 C1 1.65 1 3.3 1 5 C0.67 5 0.34 5 0 5 C0 3.35 0 1.7 0 0 Z " fill="#D7F7F9" transform="translate(233,33)"/>
<path d="M0 0 C0.33 0 0.66 0 1 0 C1 1.65 1 3.3 1 5 C0.67 5 0.34 5 0 5 C0 3.35 0 1.7 0 0 Z " fill="#D0E9E3" transform="translate(223,34)"/>
<path d="M0 0 C0.33 0 0.66 0 1 0 C1 1.65 1 3.3 1 5 C0.67 5 0.34 5 0 5 C0 3.35 0 1.7 0 0 Z " fill="#FEFEFE" transform="translate(171,34)"/>
<path d="M0 0 C1.65 0 3.3 0 5 0 C5 0.33 5 0.66 5 1 C3.35 1 1.7 1 0 1 C0 0.67 0 0.34 0 0 Z " fill="#B7B2C4" transform="translate(42,15)"/>
<path d="M0 0 C1 4 1 4 1 4 Z " fill="#FBFBFB" transform="translate(330,61)"/>
<path d="M0 0 C1 4 1 4 1 4 Z " fill="#E6E6E6" transform="translate(352,57)"/>
<path d="M0 0 C0.66 0.66 1.32 1.32 2 2 C1.01 1.67 0.02 1.34 -1 1 C-0.67 0.67 -0.34 0.34 0 0 Z " fill="#CECED0" transform="translate(333,58)"/>
<path d="M0 0 C1 4 1 4 1 4 Z " fill="#EBEBEC" transform="translate(321,56)"/>
<path d="M0 0 C1 4 1 4 1 4 Z " fill="#F5F5F7" transform="translate(234,56)"/>
<path d="M0 0 C1 4 1 4 1 4 Z " fill="#90EBF6" transform="translate(53,54)"/>
<path d="M0 0 C1 4 1 4 1 4 Z " fill="#E3E5E7" transform="translate(319,54)"/>
<path d="M0 0 C1 4 1 4 1 4 Z " fill="#ECEAEC" transform="translate(235,52)"/>
<path d="M0 0 C1 4 1 4 1 4 Z " fill="#EEEDF9" transform="translate(60,50)"/>
<path d="M0 0 C1 4 1 4 1 4 Z " fill="#FCFEFF" transform="translate(196,50)"/>
<path d="M0 0 C1 4 1 4 1 4 Z " fill="#FDFEFF" transform="translate(78,50)"/>
<path d="M0 0 C1 4 1 4 1 4 Z " fill="#EDEDED" transform="translate(354,47)"/>
<path d="M0 0 C1 4 1 4 1 4 Z " fill="#D8DDDB" transform="translate(106,47)"/>
<path d="M0 0 C1 4 1 4 1 4 Z " fill="#D8DAD9" transform="translate(221,45)"/>
<path d="M0 0 C1 4 1 4 1 4 Z " fill="#FBFBFB" transform="translate(28,43)"/>
<path d="M0 0 C1 4 1 4 1 4 Z " fill="#FEFEFE" transform="translate(169,44)"/>
<path d="M0 0 C0.99 0.495 0.99 0.495 2 1 C1.67 1.66 1.34 2.32 1 3 C0.67 2.01 0.34 1.02 0 0 Z " fill="#C7C2D1" transform="translate(108,41)"/>
<path d="M0 0 C1 4 1 4 1 4 Z " fill="#DEE0DE" transform="translate(69,36)"/>
<path d="M0 0 C1 4 1 4 1 4 Z " fill="#B1CBC5" transform="translate(78,36)"/>
<path d="M0 0 C1 4 1 4 1 4 Z " fill="#FFFFFF" transform="translate(313,34)"/>
<path d="M0 0 C4 1 4 1 4 1 Z " fill="#F9F9F7" transform="translate(47,14)"/>
<path d="M0 0 C3 1 3 1 3 1 Z " fill="#FFFFFF" transform="translate(48,81)"/>
<path d="M0 0 C3 1 3 1 3 1 Z " fill="#E2E2E2" transform="translate(48,68)"/>
<path d="" fill="#FBFBFD" transform="translate(0,0)"/>
<path d="M0 0 C0.66 0.66 1.32 1.32 2 2 C1.34 2 0.68 2 0 2 C0 1.34 0 0.68 0 0 Z " fill="#FEFEFE" transform="translate(151,59)"/>
<path d="M0 0 C3 1 3 1 3 1 Z " fill="#94A5F0" transform="translate(48,60)"/>
<path d="" fill="#FDFDFD" transform="translate(0,0)"/>
<path d="M0 0 C0.66 0 1.32 0 2 0 C1.67 0.66 1.34 1.32 1 2 C0.67 1.34 0.34 0.68 0 0 Z " fill="#FCFDFE" transform="translate(116,58)"/>
<path d="M0 0 C0.33 0.66 0.66 1.32 1 2 C0.34 1.67 -0.32 1.34 -1 1 C-0.67 0.67 -0.34 0.34 0 0 Z " fill="#DCE1E1" transform="translate(267,56)"/>
<path d="" fill="#2A56D7" transform="translate(0,0)"/>
<path d="M0 0 C0.33 0.66 0.66 1.32 1 2 C0.34 1.67 -0.32 1.34 -1 1 C-0.67 0.67 -0.34 0.34 0 0 Z " fill="#FEFEFE" transform="translate(148,55)"/>
<path d="" fill="#BEBFB9" transform="translate(0,0)"/>
<path d="" fill="#FEFEFE" transform="translate(0,0)"/>
<path d="" fill="#FCFFFE" transform="translate(0,0)"/>
<path d="" fill="#F9FBFA" transform="translate(0,0)"/>
<path d="" fill="#F9F9FB" transform="translate(0,0)"/>
<path d="" fill="#FCFEFD" transform="translate(0,0)"/>
<path d="" fill="#FDFDFD" transform="translate(0,0)"/>
<path d="M0 0 C0.66 0.66 1.32 1.32 2 2 C1.34 2 0.68 2 0 2 C0 1.34 0 0.68 0 0 Z " fill="#FEFEFE" transform="translate(118,41)"/>
<path d="M0 0 C0.66 0 1.32 0 2 0 C1.67 0.66 1.34 1.32 1 2 C0.67 1.34 0.34 0.68 0 0 Z " fill="#FBFBFC" transform="translate(287,41)"/>
<path d="M0 0 C0.99 0.495 0.99 0.495 2 1 C1.01 1.495 1.01 1.495 0 2 C0 1.34 0 0.68 0 0 Z " fill="#F1F4F1" transform="translate(192,40)"/>
<path d="M0 0 C0.66 0 1.32 0 2 0 C1.67 0.66 1.34 1.32 1 2 C0.67 1.34 0.34 0.68 0 0 Z " fill="#FDFDFD" transform="translate(206,40)"/>
<path d="" fill="#D7DCDD" transform="translate(0,0)"/>
<path d="" fill="#FFFFFE" transform="translate(0,0)"/>
<path d="" fill="#97989A" transform="translate(0,0)"/>
<path d="" fill="#FCFDFD" transform="translate(0,0)"/>
<path d="" fill="#FEFDFE" transform="translate(0,0)"/>
<path d="" fill="#FDFDFD" transform="translate(0,0)"/>
<path d="" fill="#FFFDFF" transform="translate(0,0)"/>
<path d="M0 0 C3 1 3 1 3 1 Z " fill="#E3E3E3" transform="translate(57,16)"/>
<path d="M0 0 C3 1 3 1 3 1 Z " fill="#A8A8A7" transform="translate(39,16)"/>
<path d="M0 0 C2 1 2 1 2 1 Z " fill="#C3C3C3" transform="translate(63,71)"/>
<path d="M0 0 C2 1 2 1 2 1 Z " fill="#F9FAFB" transform="translate(34,71)"/>
<path d="" fill="#FCFFFE" transform="translate(0,0)"/>
<path d="" fill="#FEFEFE" transform="translate(0,0)"/>
<path d="" fill="#FEFDFF" transform="translate(0,0)"/>
<path d="" fill="#0D46C2" transform="translate(0,0)"/>
<path d="" fill="#1B4157" transform="translate(0,0)"/>
<path d="" fill="#FCFFFE" transform="translate(0,0)"/>
<path d="" fill="#FDFDFD" transform="translate(0,0)"/>
<path d="" fill="#FFFFFF" transform="translate(0,0)"/>
<path d="" fill="#FCFFFE" transform="translate(0,0)"/>
<path d="" fill="#939296" transform="translate(0,0)"/>
<path d="" fill="#FCFFFE" transform="translate(0,0)"/>
<path d="" fill="#FEFEFE" transform="translate(0,0)"/>
<path d="" fill="#7476A4" transform="translate(0,0)"/>
<path d="" fill="#C8F8F5" transform="translate(0,0)"/>
<path d="" fill="#FCFFFE" transform="translate(0,0)"/>
<path d="" fill="#FEFEFE" transform="translate(0,0)"/>
<path d="" fill="#FFFFFF" transform="translate(0,0)"/>
<path d="" fill="#EBF5F3" transform="translate(0,0)"/>
<path d="" fill="#DEDEE0" transform="translate(0,0)"/>
<path d="" fill="#FEFEFE" transform="translate(0,0)"/>
<path d="" fill="#FEFEFE" transform="translate(0,0)"/>
<path d="" fill="#FEFEFE" transform="translate(0,0)"/>
<path d="" fill="#EAEAEA" transform="translate(0,0)"/>
<path d="" fill="#FAFEFE" transform="translate(0,0)"/>
<path d="" fill="#7B89D5" transform="translate(0,0)"/>
<path d="" fill="#FBFEF9" transform="translate(0,0)"/>
<path d="" fill="#F9FAFC" transform="translate(0,0)"/>
<path d="" fill="#FFFFFF" transform="translate(0,0)"/>
<path d="M0 0 C2 1 2 1 2 1 Z " fill="#F9FDFC" transform="translate(42,47)"/>
<path d="" fill="#FDFDFD" transform="translate(0,0)"/>
<path d="" fill="#FAF9FD" transform="translate(0,0)"/>
<path d="" fill="#FFFFFF" transform="translate(0,0)"/>
<path d="" fill="#FAFAFB" transform="translate(0,0)"/>
<path d="" fill="#FEFEFE" transform="translate(0,0)"/>
<path d="" fill="#FDFDFD" transform="translate(0,0)"/>
<path d="" fill="#FFFFFF" transform="translate(0,0)"/>
<path d="" fill="#7F7F81" transform="translate(0,0)"/>
<path d="" fill="#DBDCE5" transform="translate(0,0)"/>
<path d="" fill="#FFFFFF" transform="translate(0,0)"/>
<path d="" fill="#FDFEFF" transform="translate(0,0)"/>
<path d="" fill="#FFFFFF" transform="translate(0,0)"/>
<path d="" fill="#2FE9EA" transform="translate(0,0)"/>
<path d="M0 0 C2 1 2 1 2 1 Z " fill="#F5F5F5" transform="translate(291,38)"/>
<path d="" fill="#FCFCFE" transform="translate(0,0)"/>
<path d="" fill="#4FC3E4" transform="translate(0,0)"/>
<path d="" fill="#FAF9FC" transform="translate(0,0)"/>
<path d="" fill="#EAFFF8" transform="translate(0,0)"/>
<path d="" fill="#FFFDFD" transform="translate(0,0)"/>
<path d="" fill="#FFFFFF" transform="translate(0,0)"/>
<path d="" fill="#F9FCFB" transform="translate(0,0)"/>
<path d="" fill="#F7F7F7" transform="translate(0,0)"/>
<path d="M0 0 C2 1 2 1 2 1 Z " fill="#F9F9FD" transform="translate(298,33)"/>
<path d="" fill="#F7FAF9" transform="translate(0,0)"/>
<path d="" fill="#4354C5" transform="translate(0,0)"/>
<path d="" fill="#FAFCFE" transform="translate(0,0)"/>
<path d="" fill="#FCFBFA" transform="translate(0,0)"/>
<path d="" fill="#FFFFFF" transform="translate(0,0)"/>
<path d="" fill="#357DC4" transform="translate(0,0)"/>
<path d="" fill="#FEFFFF" transform="translate(0,0)"/>
<path d="" fill="#FEFEFA" transform="translate(0,0)"/>
<path d="" fill="#F7F7F7" transform="translate(0,0)"/>
<path d="" fill="#8E86A7" transform="translate(0,0)"/>
<path d="M0 0 C2 1 2 1 2 1 Z " fill="#FEFEFD" transform="translate(60,17)"/>
<path d="M0 0 C2 1 2 1 2 1 Z " fill="#909090" transform="translate(37,17)"/>
<path d="" fill="#F6F6F6" transform="translate(0,0)"/>
<path d="" fill="#828282" transform="translate(0,0)"/>
<path d="" fill="#FDFCFF" transform="translate(0,0)"/>
<path d="" fill="#F8FAFB" transform="translate(0,0)"/>
<path d="" fill="#AAACAB" transform="translate(0,0)"/>
<path d="" fill="#AAACAB" transform="translate(0,0)"/>
<path d="" fill="#848786" transform="translate(0,0)"/>
<path d="" fill="#FBFDFD" transform="translate(0,0)"/>
<path d="" fill="#FFFFFF" transform="translate(0,0)"/>
<path d="" fill="#7E8180" transform="translate(0,0)"/>
<path d="" fill="#FEFEFE" transform="translate(0,0)"/>
<path d="" fill="#FEFEFE" transform="translate(0,0)"/>
<path d="" fill="#A9A9A9" transform="translate(0,0)"/>
<path d="" fill="#FFFFFF" transform="translate(0,0)"/>
<path d="" fill="#FCFEFF" transform="translate(0,0)"/>
<path d="" fill="#00002E" transform="translate(0,0)"/>
<path d="" fill="#14149F" transform="translate(0,0)"/>
<path d="" fill="#FFFFFF" transform="translate(0,0)"/>
<path d="" fill="#FFFFFF" transform="translate(0,0)"/>
<path d="" fill="#F9FFFF" transform="translate(0,0)"/>
<path d="" fill="#FFFFFF" transform="translate(0,0)"/>
<path d="" fill="#FCFFFE" transform="translate(0,0)"/>
<path d="" fill="#FCFFFE" transform="translate(0,0)"/>
<path d="" fill="#5FE1EC" transform="translate(0,0)"/>
<path d="" fill="#FFFFFF" transform="translate(0,0)"/>
<path d="" fill="#828488" transform="translate(0,0)"/>
<path d="" fill="#F5F7F9" transform="translate(0,0)"/>
<path d="" fill="#828486" transform="translate(0,0)"/>
<path d="" fill="#F7FEFE" transform="translate(0,0)"/>
<path d="" fill="#A2A7A7" transform="translate(0,0)"/>
<path d="" fill="#D4FFFF" transform="translate(0,0)"/>
<path d="" fill="#F8FAFB" transform="translate(0,0)"/>
<path d="" fill="#FFFFFF" transform="translate(0,0)"/>
<path d="" fill="#FEFEFE" transform="translate(0,0)"/>
<path d="" fill="#FCFFFE" transform="translate(0,0)"/>
<path d="" fill="#FEFFFA" transform="translate(0,0)"/>
<path d="" fill="#917FB7" transform="translate(0,0)"/>
<path d="" fill="#648B89" transform="translate(0,0)"/>
<path d="" fill="#FBFDFF" transform="translate(0,0)"/>
<path d="" fill="#727979" transform="translate(0,0)"/>
<path d="" fill="#E3EAEA" transform="translate(0,0)"/>
<path d="" fill="#84C6B9" transform="translate(0,0)"/>
<path d="" fill="#FDFFFF" transform="translate(0,0)"/>
<path d="" fill="#FFFFFF" transform="translate(0,0)"/>
<path d="" fill="#FEFEFE" transform="translate(0,0)"/>
<path d="" fill="#FEFEFE" transform="translate(0,0)"/>
<path d="" fill="#FCFFFE" transform="translate(0,0)"/>
<path d="" fill="#A6ADAF" transform="translate(0,0)"/>
<path d="" fill="#FEFEFE" transform="translate(0,0)"/>
<path d="" fill="#FEFEFE" transform="translate(0,0)"/>
<path d="" fill="#FEFEFE" transform="translate(0,0)"/>
<path d="" fill="#6ACAF3" transform="translate(0,0)"/>
<path d="" fill="#FFF6F9" transform="translate(0,0)"/>
<path d="" fill="#51ECEA" transform="translate(0,0)"/>
<path d="" fill="#FEFEFE" transform="translate(0,0)"/>
<path d="" fill="#B0B7B4" transform="translate(0,0)"/>
<path d="" fill="#80948B" transform="translate(0,0)"/>
<path d="" fill="#F5F7F9" transform="translate(0,0)"/>
<path d="" fill="#FCFFFE" transform="translate(0,0)"/>
<path d="" fill="#FCFFFE" transform="translate(0,0)"/>
<path d="" fill="#FDFDFD" transform="translate(0,0)"/>
<path d="" fill="#FAFAFA" transform="translate(0,0)"/>
<path d="" fill="#FCFEFF" transform="translate(0,0)"/>
<path d="" fill="#FEFFFF" transform="translate(0,0)"/>
<path d="" fill="#FCFFFE" transform="translate(0,0)"/>
<path d="" fill="#FFFFFF" transform="translate(0,0)"/>
<path d="" fill="#001E2E" transform="translate(0,0)"/>
<path d="" fill="#E8EEEE" transform="translate(0,0)"/>
<path d="" fill="#69F4FF" transform="translate(0,0)"/>
<path d="" fill="#898C89" transform="translate(0,0)"/>
<path d="" fill="#838A9A" transform="translate(0,0)"/>
<path d="" fill="#FDFDFD" transform="translate(0,0)"/>
<path d="" fill="#FDFDFD" transform="translate(0,0)"/>
<path d="" fill="#FFFFFF" transform="translate(0,0)"/>
<path d="" fill="#FFFFFF" transform="translate(0,0)"/>
<path d="" fill="#FDFDFD" transform="translate(0,0)"/>
<path d="" fill="#FBFDFD" transform="translate(0,0)"/>
<path d="" fill="#FDFDFD" transform="translate(0,0)"/>
<path d="" fill="#F6F5F8" transform="translate(0,0)"/>
<path d="" fill="#FFFFFF" transform="translate(0,0)"/>
<path d="" fill="#FFFFFF" transform="translate(0,0)"/>
<path d="" fill="#FEFEFE" transform="translate(0,0)"/>
<path d="" fill="#FDFDFD" transform="translate(0,0)"/>
<path d="" fill="#FFFFFF" transform="translate(0,0)"/>
<path d="" fill="#FDFDFD" transform="translate(0,0)"/>
<path d="" fill="#7D7C7F" transform="translate(0,0)"/>
<path d="" fill="#FEFEFE" transform="translate(0,0)"/>
<path d="" fill="#FCFBFC" transform="translate(0,0)"/>
<path d="" fill="#FDFCFF" transform="translate(0,0)"/>
<path d="" fill="#FDFDFD" transform="translate(0,0)"/>
<path d="" fill="#A7A6A7" transform="translate(0,0)"/>
<path d="" fill="#5397D0" transform="translate(0,0)"/>
<path d="" fill="#8ACBFF" transform="translate(0,0)"/>
<path d="" fill="#F8FEF9" transform="translate(0,0)"/>
<path d="" fill="#FFFFFF" transform="translate(0,0)"/>
<path d="" fill="#FFFFFF" transform="translate(0,0)"/>
<path d="" fill="#6BC1FF" transform="translate(0,0)"/>
<path d="" fill="#F6F9F6" transform="translate(0,0)"/>
<path d="" fill="#878787" transform="translate(0,0)"/>
<path d="" fill="#00297C" transform="translate(0,0)"/>
<path d="" fill="#020206" transform="translate(0,0)"/>
<path d="" fill="#FFFFFF" transform="translate(0,0)"/>
<path d="" fill="#61C2FF" transform="translate(0,0)"/>
<path d="" fill="#FFFFFF" transform="translate(0,0)"/>
<path d="" fill="#FFFFFC" transform="translate(0,0)"/>
<path d="" fill="#F6F9F8" transform="translate(0,0)"/>
<path d="" fill="#FFFFFF" transform="translate(0,0)"/>
<path d="" fill="#FDFDFD" transform="translate(0,0)"/>
<path d="" fill="#FFFFFF" transform="translate(0,0)"/>
<path d="" fill="#A6B2AD" transform="translate(0,0)"/>
<path d="" fill="#5ECED8" transform="translate(0,0)"/>
<path d="" fill="#F8F9FD" transform="translate(0,0)"/>
<path d="" fill="#A3FFFF" transform="translate(0,0)"/>
<path d="" fill="#FAFAFC" transform="translate(0,0)"/>
<path d="" fill="#B0B0AE" transform="translate(0,0)"/>
<path d="" fill="#F7F7F7" transform="translate(0,0)"/>
<path d="" fill="#FCFBFC" transform="translate(0,0)"/>
<path d="" fill="#F8F7FE" transform="translate(0,0)"/>
<path d="" fill="#FCFBFC" transform="translate(0,0)"/>
<path d="" fill="#F0F1EC" transform="translate(0,0)"/>
<path d="" fill="#ADADAD" transform="translate(0,0)"/>
<path d="" fill="#FFFFFF" transform="translate(0,0)"/>
<path d="" fill="#FFFFFF" transform="translate(0,0)"/>
<path d="" fill="#F9F9F9" transform="translate(0,0)"/>
<path d="" fill="#FFFFFF" transform="translate(0,0)"/>
</svg>
