<?xml version="1.0" encoding="UTF-8"?>
<svg version="1.1" xmlns="http://www.w3.org/2000/svg" width="230" height="205">
<path d="M0 0 C2.23113456 1.69597706 4.35300266 3.46651338 6.46484375 5.30859375 C7.274375 5.98664062 8.08390625 6.6646875 8.91796875 7.36328125 C26.09072095 22.16556152 37.05639047 41.62096384 39.46484375 64.30859375 C40.50093932 82.42296763 38.5784492 97.64474202 31.46484375 114.30859375 C31.13291016 115.09339111 30.80097656 115.87818848 30.45898438 116.68676758 C29.46484375 118.87109375 29.46484375 118.87109375 27.46484375 122.30859375 C25.33984375 123.0234375 25.33984375 123.0234375 23.46484375 123.30859375 C21.98336043 121.51884219 20.50472469 119.72673318 19.02734375 117.93359375 C18.20363281 116.93585938 17.37992188 115.938125 16.53125 114.91015625 C14.46484375 112.30859375 14.46484375 112.30859375 13.46484375 110.30859375 C14.3203125 108.26953125 14.3203125 108.26953125 15.65234375 105.68359375 C24.01072532 87.86950119 24.8250701 67.62030904 18.55078125 48.890625 C10.97391298 30.87512166 -2.43052747 16.20225271 -20.28515625 7.93359375 C-30.27325685 3.95162674 -41.73550344 1.25680148 -52.53515625 2.30859375 C-53.49292969 2.40140625 -54.45070313 2.49421875 -55.4375 2.58984375 C-69.35878865 4.34476983 -80.67409754 8.30095803 -91.53515625 17.30859375 C-92.58703125 18.09234375 -93.63890625 18.87609375 -94.72265625 19.68359375 C-110.48144386 34.39179552 -118.09224275 54.20395835 -118.91015625 75.49609375 C-118.73374717 85.96723247 -116.28468419 97.24996355 -111.171875 106.44921875 C-110.26326542 109.1025817 -110.67161081 110.66066059 -111.53515625 113.30859375 C-113.12890625 115.4765625 -113.12890625 115.4765625 -115.03515625 117.49609375 C-117.59543123 120.18676195 -117.59543123 120.18676195 -119.53515625 123.30859375 C-121.39428711 123.07104492 -121.39428711 123.07104492 -123.53515625 122.30859375 C-124.76782227 120.48950195 -124.76782227 120.48950195 -125.7890625 118.109375 C-126.16748291 117.23756592 -126.54590332 116.36575684 -126.93579102 115.4675293 C-127.31920654 114.52820557 -127.70262207 113.58888184 -128.09765625 112.62109375 C-128.49460693 111.65792236 -128.89155762 110.69475098 -129.30053711 109.70239258 C-138.40883357 87.03314985 -138.26482524 62.51574944 -129.05517578 39.89892578 C-126.20775907 33.24873977 -122.93954433 27.06323219 -118.53515625 21.30859375 C-117.87128906 20.42042969 -117.20742187 19.53226563 -116.5234375 18.6171875 C-111.10211241 11.57247116 -111.10211241 11.57247116 -106.53515625 9.30859375 C-106.20515625 8.31859375 -105.87515625 7.32859375 -105.53515625 6.30859375 C-93.97973593 -3.69046922 -79.58599254 -10.99613238 -64.53515625 -13.69140625 C-63.62378906 -13.86929687 -62.71242188 -14.0471875 -61.7734375 -14.23046875 C-40.24231998 -17.29521165 -18.0540805 -12.04532643 0 0 Z " fill="#F8F9F9" transform="translate(163.53515625,18.69140625)"/>
<path d="M0 0 C7.64878687 5.03790289 11.39244536 9.83920347 14.125 18.625 C15.44652536 23.29636337 15.44652536 23.29636337 18.59765625 26.703125 C20.66863557 27.40469496 20.66863557 27.40469496 22.76953125 27.8359375 C27.41595448 28.99044592 29.94055037 33.53506338 32.4375 37.3125 C35.63526933 42.68555442 36.38007384 48.1145511 35.6875 54.3125 C35.06771622 55.99716326 34.40938597 57.66899677 33.6875 59.3125 C31.56256859 59.33943575 29.43754088 59.35886628 27.3125 59.375 C26.12914062 59.38660156 24.94578125 59.39820312 23.7265625 59.41015625 C20.6875 59.3125 20.6875 59.3125 18.6875 58.3125 C18.79449219 57.73242188 18.90148437 57.15234375 19.01171875 56.5546875 C19.82776463 51.23722728 19.93663491 47.90610453 16.6875 43.3125 C13.28336488 40.66483935 8.84472332 40.78955841 4.6875 40.3125 C3.02147218 38.64647218 3.20443247 36.40639684 2.875 34.125 C2.01978905 29.12979061 0.76017857 26.27724654 -2.3125 22.3125 C-2.8075 20.8275 -2.8075 20.8275 -3.3125 19.3125 C-5.10957662 18.18401132 -5.10957662 18.18401132 -7.3125 17.3125 C-8.07046875 16.95929687 -8.8284375 16.60609375 -9.609375 16.2421875 C-17.32587216 12.92458522 -22.48256012 12.09110407 -30.4375 15 C-36.10631744 17.49915608 -40.61825111 20.01580445 -43.0625 26 C-43.8510437 28.34335586 -44.33521361 30.48846524 -44.65234375 32.9453125 C-44.99420334 35.58032009 -45.31266532 37.84684433 -46.3125 40.3125 C-48.35720615 41.60733524 -50.07227599 42.13892529 -52.4375 42.6171875 C-54.46161078 43.16823828 -54.46161078 43.16823828 -55.5859375 45.09765625 C-56.42143392 47.64457276 -56.33907781 49.23797235 -55.9375 51.875 C-55.56698895 54.42980295 -55.3125 56.71921762 -55.3125 59.3125 C-57.39468362 59.42082169 -59.47849129 59.49823541 -61.5625 59.5625 C-62.72265625 59.60890625 -63.8828125 59.6553125 -65.078125 59.703125 C-68.3125 59.3125 -68.3125 59.3125 -70.6796875 57.59765625 C-73.42079974 53.76141065 -73.36955765 49.91990518 -73.3125 45.3125 C-72.3770994 39.79363643 -70.21203451 35.32403158 -66.3125 31.3125 C-64.53515625 30.3359375 -64.53515625 30.3359375 -62.6875 29.5 C-60.2535834 28.27515644 -59.46518341 27.6552712 -58.33984375 25.12890625 C-57.85749583 23.39719815 -57.40494748 21.65695053 -56.98046875 19.91015625 C-55.32784992 13.48330524 -52.341515 8.65574023 -47.3125 4.3125 C-46.75949219 3.81878906 -46.20648438 3.32507812 -45.63671875 2.81640625 C-32.33908965 -8.22365435 -14.75840536 -8.21902089 0 0 Z " fill="#41A0EE" transform="translate(134.3125,39.6875)"/>
<path d="M0 0 C-0.11514149 2.04224637 -0.24257326 4.08380159 -0.375 6.125 C-0.44460937 7.26195312 -0.51421875 8.39890625 -0.5859375 9.5703125 C-1.00283401 13.02347419 -1.58527509 15.82146221 -3 19 C-4.8046875 20.3203125 -4.8046875 20.3203125 -6.875 21.125 C-12.00203209 23.40574122 -14.27441716 25.38139214 -16.625 30.625 C-17.78211447 33.85401577 -18.25632995 36.91765535 -18.6875 40.3125 C-19.13671875 42.87109375 -19.13671875 42.87109375 -20 45 C-22.04470615 46.29483524 -23.75977599 46.82642529 -26.125 47.3046875 C-28.14911078 47.85573828 -28.14911078 47.85573828 -29.2734375 49.78515625 C-30.10893392 52.33207276 -30.02657781 53.92547235 -29.625 56.5625 C-29.25448895 59.11730295 -29 61.40671762 -29 64 C-31.08218362 64.10832169 -33.16599129 64.18573541 -35.25 64.25 C-36.41015625 64.29640625 -37.5703125 64.3428125 -38.765625 64.390625 C-42 64 -42 64 -44.3671875 62.28515625 C-47.10829974 58.44891065 -47.05705765 54.60740518 -47 50 C-46.0645994 44.48113643 -43.89953451 40.01153158 -40 36 C-38.22265625 35.0234375 -38.22265625 35.0234375 -36.375 34.1875 C-33.9410834 32.96265644 -33.15268341 32.3427712 -32.02734375 29.81640625 C-31.54499583 28.08469815 -31.09244748 26.34445053 -30.66796875 24.59765625 C-28.12023523 14.68980367 -21.40904542 8.39916569 -13 3 C-8.67926551 0.86354826 -4.83227166 -0.15022606 0 0 Z " fill="#F8F9FA" transform="translate(108,35)"/>
<path d="M0 0 C2.11435016 3.17152524 2.25168948 3.94730179 2.25878906 7.57568359 C2.26509338 8.50029388 2.27139771 9.42490417 2.27789307 10.37753296 C2.2738446 11.37443146 2.26979614 12.37132996 2.265625 13.3984375 C2.26753845 14.4255484 2.2694519 15.4526593 2.27142334 16.51089478 C2.2727849 18.68467453 2.26909047 20.85846242 2.26074219 23.03222656 C2.25006426 26.35500453 2.26062733 29.67723914 2.2734375 33 C2.27211547 35.11198036 2.26955218 37.22396038 2.265625 39.3359375 C2.26967346 40.32878754 2.27372192 41.32163757 2.27789307 42.34457397 C2.2167103 51.37900093 2.2167103 51.37900093 0 55 C-2.875 56.0625 -2.875 56.0625 -6 56 C-8.16870117 54.68383789 -8.16870117 54.68383789 -10 52 C-10.5769519 48.33257359 -10.48804522 44.70089819 -10.42578125 40.99609375 C-10.42249313 39.92126236 -10.41920502 38.84643097 -10.41581726 37.73902893 C-10.40539964 35.46861714 -10.38545532 33.19823197 -10.35668945 30.92797852 C-10.31262382 27.44728008 -10.29525472 23.96727095 -10.28320312 20.48632812 C-10.26977865 18.28124002 -10.25485557 16.07616043 -10.23828125 13.87109375 C-10.23089432 12.82731064 -10.22350739 11.78352753 -10.21589661 10.70811462 C-10.20306137 9.74023514 -10.19022614 8.77235565 -10.17700195 7.77514648 C-10.16715775 6.9233934 -10.15731354 6.07164032 -10.14717102 5.19407654 C-10 3 -10 3 -9 0 C-5.46474216 -1.17841928 -3.5797952 -0.91399027 0 0 Z " fill="#F9F9FA" transform="translate(140,133)"/>
<path d="M0 0 C1.91078903 2.9499107 2.25869425 5.32374518 2.29052734 8.796875 C2.3096669 10.2185498 2.3096669 10.2185498 2.32919312 11.66894531 C2.33253159 13.19406738 2.33253159 13.19406738 2.3359375 14.75 C2.3425943 15.80026367 2.3492511 16.85052734 2.35610962 17.93261719 C2.36622809 20.1516749 2.37092689 22.37076299 2.37060547 24.58984375 C2.37498387 27.9874868 2.41132755 31.3838363 2.44921875 34.78125 C2.45508595 36.93749556 2.45905599 39.09374728 2.4609375 41.25 C2.47530853 42.26674805 2.48967957 43.28349609 2.50448608 44.33105469 C2.4590624 51.32763959 2.4590624 51.32763959 0.17041016 54.6796875 C-2 56 -2 56 -5.1875 55.875 C-6.115625 55.58625 -7.04375 55.2975 -8 55 C-9.19822377 52.60355246 -9.16942029 51.0154809 -9.23706055 48.33837891 C-9.26346115 47.37042389 -9.28986176 46.40246887 -9.31706238 45.40518188 C-9.35154228 43.83176529 -9.35154228 43.83176529 -9.38671875 42.2265625 C-9.41224319 41.15127289 -9.43776764 40.07598328 -9.46406555 38.96810913 C-9.51613554 36.69005986 -9.56555497 34.41194871 -9.61254883 32.13378906 C-9.68704867 28.64612875 -9.77772099 25.15912749 -9.86914062 21.671875 C-9.91766296 19.46095914 -9.96522087 17.25002186 -10.01171875 15.0390625 C-10.04077805 13.99416656 -10.06983734 12.94927063 -10.09977722 11.87271118 C-10.12519341 10.41132217 -10.12519341 10.41132217 -10.15112305 8.92041016 C-10.17031296 8.06484528 -10.18950287 7.2092804 -10.20927429 6.32778931 C-9.97527195 3.72494614 -9.4547445 2.16716513 -8 0 C-4.66411172 -1.11196276 -3.29427581 -1.09809194 0 0 Z " fill="#F8F9FB" transform="translate(99,133)"/>
<path d="M0 0 C3.18145665 6.02585086 2.40832633 12.86785227 2.4375 19.5 C2.47037109 20.81871094 2.50324219 22.13742188 2.53710938 23.49609375 C2.54419922 24.76582031 2.55128906 26.03554687 2.55859375 27.34375 C2.57204834 28.50068359 2.58550293 29.65761719 2.59936523 30.84960938 C1.82968305 34.89522198 0.09010837 36.38762355 -3 39 C-5.91517292 37.92598892 -7.77810176 37.22189824 -10 35 C-10.25878906 31.88305664 -10.25878906 31.88305664 -10.265625 27.91015625 C-10.26753845 27.20982773 -10.2694519 26.50949921 -10.27142334 25.78794861 C-10.27278493 24.30597576 -10.2690903 22.82399098 -10.26074219 21.34204102 C-10.25005777 19.07475915 -10.26062953 16.80827251 -10.2734375 14.54101562 C-10.27211559 13.10156075 -10.26955253 11.66210637 -10.265625 10.22265625 C-10.26336914 8.91047119 -10.26111328 7.59828613 -10.25878906 6.24633789 C-10 3 -10 3 -8 0 C-4.65284689 -1.1157177 -3.28928478 -1.1807689 0 0 Z " fill="#F9F9FA" transform="translate(165,133)"/>
<path d="M0 0 C5.75 0.75 5.75 0.75 8 3 C8.5087034 7.05404018 8.56857455 11.12866051 8.68798828 15.21142578 C8.74936322 17.22906651 8.83255931 19.24496986 8.91796875 21.26171875 C8.96050781 22.54175781 9.00304687 23.82179687 9.046875 25.140625 C9.08651367 26.31141602 9.12615234 27.48220703 9.16699219 28.68847656 C8.9908986 32.18048458 8.39830257 34.80001573 7 38 C4.375 39.375 4.375 39.375 2 40 C-0.46289062 38.453125 -0.46289062 38.453125 -3 36 C-3.61523438 32.671875 -3.61523438 32.671875 -3.59375 28.75 C-3.59379028 28.05487305 -3.59383057 27.35974609 -3.59387207 26.64355469 C-3.58852383 25.17764212 -3.57097005 23.71172963 -3.54199219 22.24609375 C-3.50012933 20.00691784 -3.50092475 17.77075134 -3.5078125 15.53125 C-3.42006211 3.5971968 -3.42006211 3.5971968 0 0 Z " fill="#F8F9FB" transform="translate(67,132)"/>
<path d="M0 0 C1.65 0 3.3 0 5 0 C7.9445679 4.99296295 8.63495936 9.33557626 9 15 C10.5778125 15.433125 10.5778125 15.433125 12.1875 15.875 C16.59386339 17.17523838 20.1763437 18.4508958 24 21 C24.99 21 25.98 21 27 21 C27.33 20.34 27.66 19.68 28 19 C27.01 18.67 26.02 18.34 25 18 C26.98 17.34 28.96 16.68 31 16 C30.67 15.01 30.34 14.02 30 13 C30.99 13 31.98 13 33 13 C37.00080811 19.58197464 38.8696448 25.21741601 38 33 C37.38021622 34.68466326 36.72188597 36.35649677 36 38 C33.87506859 38.02693575 31.75004088 38.04636628 29.625 38.0625 C27.84996094 38.07990234 27.84996094 38.07990234 26.0390625 38.09765625 C23 38 23 38 21 37 C21.10699219 36.41992188 21.21398437 35.83984375 21.32421875 35.2421875 C22.14026463 29.92472728 22.24913491 26.59360453 19 22 C15.59586488 19.35233935 11.15722332 19.47705841 7 19 C5.34308261 17.34308261 5.51854203 15.14588648 5.1875 12.875 C4.31362463 7.75849308 2.86482654 4.29723981 0 0 Z " fill="#429CE8" transform="translate(132,61)"/>
<path d="M0 0 C2.6245228 0.99550865 3.95028727 1.93963454 5.75 4.125 C7.42728337 7.98275174 7.2127899 10.81513202 7 15 C7.66386719 15.17015625 8.32773438 15.3403125 9.01171875 15.515625 C18.31449631 18.06879607 18.31449631 18.06879607 22 22 C22 22.99 22 23.98 22 25 C20.02 25.99 20.02 25.99 18 27 C18 28.32 18 29.64 18 31 C13.25 30.25 13.25 30.25 11 28 C8.15785396 27.37706388 5.31228687 26.9817635 2.43359375 26.5625 C1.63050781 26.376875 0.82742187 26.19125 0 26 C-1.12126035 23.75747931 -1.23257016 22.17593382 -1.4375 19.6875 C-1.91830663 14.59336882 -1.91830663 14.59336882 -4 10 C-7.05272465 9.10169161 -7.05272465 9.10169161 -10 9 C-9.875 7.125 -9.875 7.125 -9 5 C-7.02253397 4.26919734 -5.01927511 3.60578253 -3 3 C-1.16310524 1.50113129 -1.16310524 1.50113129 0 0 Z " fill="#409EEB" transform="translate(141,52)"/>
<path d="M0 0 C3 0.3125 3 0.3125 6 1 C7.9285791 4.85715821 7.48405181 9.56178909 7.6875 13.8125 C7.74744141 14.81087891 7.80738281 15.80925781 7.86914062 16.83789062 C7.91619141 17.80533203 7.96324219 18.77277344 8.01171875 19.76953125 C8.05772217 20.65229736 8.10372559 21.53506348 8.15112305 22.44458008 C7.96511886 25.58982371 7.29748899 28.70251101 5 31 C1.5 30.6875 1.5 30.6875 -2 30 C-4.63839785 24.72320429 -4.09978723 17.47426811 -4.25 11.6875 C-4.27578125 10.72199219 -4.3015625 9.75648438 -4.328125 8.76171875 C-3.90627357 5.21113585 -2.54341162 2.54341162 0 0 Z " fill="#FAF9FB" transform="translate(113,172)"/>
<path d="M0 0 C3 -0.3125 3 -0.3125 6 0 C9.72302414 3.72302414 8.76102186 9.94731943 9 15 C9.05414063 15.9590625 9.10828125 16.918125 9.1640625 17.90625 C9.29156155 21.75440328 9.19172992 24.49544758 7.8125 28.125 C6 30 6 30 3.5 30.5625 C1 30 1 30 -0.63354492 28.29711914 C-2.27597903 25.5360574 -2.37359554 23.87907116 -2.36328125 20.68359375 C-2.36263672 19.67232422 -2.36199219 18.66105469 -2.36132812 17.61914062 C-2.34521484 16.56919922 -2.32910156 15.51925781 -2.3125 14.4375 C-2.31572266 13.38369141 -2.31894531 12.32988281 -2.32226562 11.24414062 C-2.26720715 3.40081073 -2.26720715 3.40081073 0 0 Z " fill="#42A0E7" transform="translate(112,108)"/>
<path d="M0 0 C0.5878125 0.44988281 1.175625 0.89976563 1.78125 1.36328125 C6.04710459 4.51010004 9.53100775 7 15 7 C13.00386732 13.7186905 10.2708579 19.80734808 7 26 C3.98510834 25.66802317 3.02606154 25.02741538 0.89453125 22.78515625 C-0.13607422 21.43744141 -0.13607422 21.43744141 -1.1875 20.0625 C-1.88230469 19.16660156 -2.57710937 18.27070313 -3.29296875 17.34765625 C-5 15 -5 15 -6 13 C-5.10333658 10.75689987 -4.10853317 8.55245679 -3.0625 6.375 C-2.49660156 5.18648438 -1.93070313 3.99796875 -1.34765625 2.7734375 C-0.90292969 1.85820313 -0.45820313 0.94296875 0 0 Z " fill="#4497E2" transform="translate(183,116)"/>
<path d="M0 0 C2.06573436 2.06573436 2.96371055 3.6837826 4.1875 6.3125 C4.55230469 7.07175781 4.91710937 7.83101563 5.29296875 8.61328125 C6.16646797 11.56194435 5.9795504 13.0935406 5 16 C3.40625 18.16796875 3.40625 18.16796875 1.5 20.1875 C-1.06027498 22.8781682 -1.06027498 22.8781682 -3 26 C-4.87988281 25.73852539 -4.87988281 25.73852539 -7 25 C-8.09667969 23.32592773 -8.09667969 23.32592773 -8.921875 21.18359375 C-9.22480469 20.41982422 -9.52773438 19.65605469 -9.83984375 18.86914062 C-10.14019531 18.06669922 -10.44054688 17.26425781 -10.75 16.4375 C-11.06582031 15.63119141 -11.38164063 14.82488281 -11.70703125 13.99414062 C-12.48523782 12.00146017 -13.24444266 10.00137801 -14 8 C-12.92621094 7.56042969 -11.85242187 7.12085937 -10.74609375 6.66796875 C-7.940462 5.46555514 -5.50871865 4.15964469 -3.0625 2.3125 C-2.051875 1.549375 -1.04125 0.78625 0 0 Z " fill="#4496DD" transform="translate(47,116)"/>
<path d="M0 0 C12.96623941 -0.57203997 23.93721489 2.24426795 34 10.67578125 C38.10525516 14.80757901 39.71278573 18.76714385 41.4375 24.3125 C42.78379968 29.00741929 42.78379968 29.00741929 45.9453125 32.4609375 C47.96063234 33.15254173 49.91259604 33.59036331 52 34 C54.5 35.5625 54.5 35.5625 56 37 C56 37.66 56 38.32 56 39 C52.93202834 38.32756786 50.23158455 37.29931605 47.375 36 C46.21097656 35.4740625 46.21097656 35.4740625 45.0234375 34.9375 C43.6728143 34.31172863 42.33139711 33.66569856 41 33 C40.5078125 30.85546875 40.5078125 30.85546875 40.125 28.1875 C39.36217816 23.94960091 38.62943992 21.60865994 35 19 C34.34 18.67 33.68 18.34 33 18 C33 16.68 33 15.36 33 14 C31.35 13.34 29.7 12.68 28 12 C28 11.34 28 10.68 28 10 C27.319375 9.7525 26.63875 9.505 25.9375 9.25 C23 8 23 8 20.0625 6 C14.64473097 2.75901317 8.13499681 2.70114249 2 2 C2 7.61 2 13.22 2 19 C1.01 19 0.02 19 -1 19 C-0.67 12.73 -0.34 6.46 0 0 Z " fill="#579BCD" transform="translate(107,34)"/>
<path d="M0 0 C3.18145665 6.02585086 2.40832633 12.86785227 2.4375 19.5 C2.47037109 20.81871094 2.50324219 22.13742188 2.53710938 23.49609375 C2.54419922 24.76582031 2.55128906 26.03554687 2.55859375 27.34375 C2.57204834 28.50068359 2.58550293 29.65761719 2.59936523 30.84960938 C1.82968305 34.89522198 0.09010837 36.38762355 -3 39 C-5.91517292 37.92598892 -7.77810176 37.22189824 -10 35 C-10.25878906 31.88305664 -10.25878906 31.88305664 -10.265625 27.91015625 C-10.26753845 27.20982773 -10.2694519 26.50949921 -10.27142334 25.78794861 C-10.27278493 24.30597576 -10.2690903 22.82399098 -10.26074219 21.34204102 C-10.25005777 19.07475915 -10.26062953 16.80827251 -10.2734375 14.54101562 C-10.27211559 13.10156075 -10.26955253 11.66210637 -10.265625 10.22265625 C-10.26336914 8.91047119 -10.26111328 7.59828613 -10.25878906 6.24633789 C-10 3 -10 3 -8 0 C-4.65284689 -1.1157177 -3.28928478 -1.1807689 0 0 Z M-8 2 C-8 12.89 -8 23.78 -8 35 C-6.35 35.66 -4.7 36.32 -3 37 C-0.59324787 33.38987181 -0.68308348 31.5159355 -0.55078125 27.21484375 C-0.52904343 26.55795059 -0.5073056 25.90105743 -0.48490906 25.22425842 C-0.44106741 23.83836192 -0.40185048 22.45231243 -0.36694336 21.06616211 C-0.31259953 18.94139152 -0.24242506 16.8175799 -0.16992188 14.69335938 C0.43437169 8.15439974 0.43437169 8.15439974 -1 2 C-3.9737344 0.90963072 -4.88407501 0.96135834 -8 2 Z " fill="#D5D7E2" transform="translate(165,133)"/>
<path d="M0 0 C2.27102425 1.62216018 2.90645253 2.72655355 3.8125 5.375 C4.03950547 8.55307652 3.56967551 10.23438124 2 13 C-0.36249414 14.79223694 -1.5399998 15.03450001 -4.5 14.8125 C-7.28666939 13.90683245 -8.92496592 13.07503408 -11 11 C-11.9375 8.625 -11.9375 8.625 -12 6 C-10.740247 3.14898006 -9.64117799 1.4701972 -7.125 -0.375 C-4.34552132 -1.19249373 -2.73760361 -0.91253454 0 0 Z " fill="#F4F7F9" transform="translate(73,108)"/>
<path d="M0 0 C2.93599106 1.63110615 4.28449141 2.59137218 5.8125 5.5625 C6.375 8 6.375 8 5.8125 10.5625 C3.125 13.4375 3.125 13.4375 -0.1875 15.5625 C-3.20007475 15.5625 -4.81686971 14.74280663 -7.5 13.4375 C-9.1875 11.5625 -9.1875 11.5625 -9.8125 8.1875 C-9.19494842 4.60570082 -9.02161395 3.86204366 -6.5625 1.5 C-3.1875 -0.4375 -3.1875 -0.4375 0 0 Z " fill="#F7F9FA" transform="translate(138.1875,107.4375)"/>
<path d="M0 0 C3.34972608 1.46013701 4.6391167 2.88074494 6.4375 6.0625 C6.375 9.75 6.375 9.75 5.4375 13.0625 C1.67250419 15.5724972 -0.10543606 15.67726744 -4.5625 15.0625 C-6.68834444 13.23883295 -7.95421756 11.40181992 -9.5625 9.0625 C-8.05771888 4.13776178 -5.5612833 0.13564106 0 0 Z " fill="#F7F9F9" transform="translate(162.5625,106.9375)"/>
<path d="M0 0 C2.80679137 0.9122072 3.86597823 1.36146734 5.5 3.8125 C6.42030612 7.42798831 6.98427533 9.7300022 5.4375 13.1875 C2.7434698 15.4470092 1.00732933 15.8125 -2.5 15.8125 C-5.62705776 14.00575552 -7.12442777 12.7279573 -8.5 9.375 C-8.5 6.01771695 -7.50783002 4.46570395 -5.5 1.8125 C-2.5 -0.1875 -2.5 -0.1875 0 0 Z " fill="#F4F7F9" transform="translate(95.5,107.1875)"/>
<path d="M0 0 C4.91653904 7.37480857 1.4619193 18.78975676 0 27 C-0.33 27 -0.66 27 -1 27 C-1.33 19.08 -1.66 11.16 -2 3 C-3.65 3 -5.3 3 -7 3 C-7.79992991 8.60227732 -8.136767 14.00201885 -8.09765625 19.65625 C-8.0962413 20.44398804 -8.09482635 21.23172607 -8.09336853 22.04333496 C-8.08782612 24.52893064 -8.07528485 27.01443211 -8.0625 29.5 C-8.05747754 31.19791535 -8.05291595 32.89583214 -8.04882812 34.59375 C-8.03787564 38.72920229 -8.02065166 42.86458524 -8 47 C-7.67 47 -7.34 47 -7 47 C-7 48.98 -7 50.96 -7 53 C-7.99 52.67 -8.98 52.34 -10 52 C-10.02531927 45.0765867 -10.04285389 38.15318531 -10.05493164 31.22973633 C-10.05996575 28.873612 -10.06679346 26.5174908 -10.07543945 24.16137695 C-10.0875453 20.7781497 -10.09323749 17.39496368 -10.09765625 14.01171875 C-10.10281754 12.95538742 -10.10797882 11.89905609 -10.11329651 10.81071472 C-10.11337204 9.82992447 -10.11344757 8.84913422 -10.11352539 7.83862305 C-10.115746 6.97480515 -10.11796661 6.11098724 -10.12025452 5.22099304 C-10 3 -10 3 -9 0 C-5.46474216 -1.17841928 -3.5797952 -0.91399027 0 0 Z " fill="#EBEEF3" transform="translate(140,133)"/>
<path d="M0 0 C6.43682152 0.3901104 10.36905869 5.33022676 14.625 9.6875 C16.94206507 11.94358967 19.16825753 13.46276837 22 15 C21.67 16.32 21.34 17.64 21 19 C18.87506859 19.02693575 16.75004088 19.04636628 14.625 19.0625 C13.44164062 19.07410156 12.25828125 19.08570312 11.0390625 19.09765625 C8 19 8 19 6 18 C6.10699219 17.41992188 6.21398437 16.83984375 6.32421875 16.2421875 C7.14464878 10.89615956 7.20440239 7.64085864 4 3 C1.95053601 1.14684743 1.95053601 1.14684743 0 0 Z " fill="#4587BF" transform="translate(147,80)"/>
<path d="M0 0 C3 0.25 3 0.25 5 2.25 C5.23046875 4.78125 5.23046875 4.78125 5.1875 7.75 C5.17783203 9.21953125 5.17783203 9.21953125 5.16796875 10.71875 C5 13.25 5 13.25 4 15.25 C1.75 16.1875 1.75 16.1875 -1 16.25 C-3.875 14.375 -3.875 14.375 -6 11.25 C-6.22095251 8.11894125 -5.89259858 5.25882568 -5 2.25 C-3 0.25 -3 0.25 0 0 Z " fill="#F9F9FC" transform="translate(115,146.75)"/>
<path d="M0 0 C0.94921875 2.28515625 0.94921875 2.28515625 1.6875 5.0625 C2.06455078 6.44115234 2.06455078 6.44115234 2.44921875 7.84765625 C2.63097656 8.55792969 2.81273438 9.26820312 3 10 C1.13083206 11.86916794 -1.87444574 11.21688008 -4.375 11.25 C-5.53773437 11.27578125 -6.70046875 11.3015625 -7.8984375 11.328125 C-11 11 -11 11 -12.9140625 9.484375 C-13.27242187 8.99453125 -13.63078125 8.5046875 -14 8 C-13.34 7.67 -12.68 7.34 -12 7 C-11.71125 6.38125 -11.4225 5.7625 -11.125 5.125 C-8.76674825 0.67052447 -4.87870605 -1.62623535 0 0 Z " fill="#61A2D3" transform="translate(77,88)"/>
<path d="M0 0 C4.71273525 7.06910288 4.38636887 16.85911867 4.375 25.125 C4.37693359 26.60528687 4.37693359 26.60528687 4.37890625 28.11547852 C4.2506234 37.13536609 2.58827446 45.39167645 0 54 C-0.66 54 -1.32 54 -2 54 C-1.86722656 53.35675781 -1.73445312 52.71351562 -1.59765625 52.05078125 C-0.34655814 45.64917703 0.36627318 39.35830969 0.75390625 32.84765625 C1 30 1 30 1.53442383 28.09301758 C2.04969696 25.7765852 1.95929313 24.01724658 1.6953125 21.6640625 C1.60636719 20.84679687 1.51742187 20.02953125 1.42578125 19.1875 C1.32652344 18.341875 1.22726563 17.49625 1.125 16.625 C1.03347656 15.78710938 0.94195312 14.94921875 0.84765625 14.0859375 C0.44910758 10.51583957 -0.00021575 6.99879342 -0.6328125 3.4609375 C-0.81457031 2.24277344 -0.81457031 2.24277344 -1 1 C-0.67 0.67 -0.34 0.34 0 0 Z " fill="#E4E7EC" transform="translate(199,69)"/>
<path d="M0 0 C-0.11514149 2.04224637 -0.24257326 4.08380159 -0.375 6.125 C-0.44460937 7.26195312 -0.51421875 8.39890625 -0.5859375 9.5703125 C-1.00532025 13.04406776 -1.537118 15.81823164 -3 19 C-5.1640625 20.4609375 -5.1640625 20.4609375 -7.625 21.375 C-8.44226563 21.69210938 -9.25953125 22.00921875 -10.1015625 22.3359375 C-10.72804688 22.55507813 -11.35453125 22.77421875 -12 23 C-11.67 21.68 -11.34 20.36 -11 19 C-9.35 18.67 -7.7 18.34 -6 18 C-4.24252386 13.49646738 -3.80705592 9.82360189 -4 5 C-7.3 5 -10.6 5 -14 5 C-9.6975338 0.6975338 -5.94625859 -0.13101926 0 0 Z " fill="#DEF6FD" transform="translate(108,35)"/>
<path d="M0 0 C3 -0.3125 3 -0.3125 6 0 C6.66 0.66 7.32 1.32 8 2 C7.625 4.125 7.625 4.125 7 6 C7 5.34 7 4.68 7 4 C6.34 4 5.68 4 5 4 C5 3.34 5 2.68 5 2 C1.88214887 2.64644661 1.88214887 2.64644661 1 5 C0.34 5 -0.32 5 -1 5 C-0.85856168 7.7294586 -0.71200471 10.45848123 -0.5625 13.1875 C-0.52318359 13.95642578 -0.48386719 14.72535156 -0.44335938 15.51757812 C-0.22492966 19.43251075 0.08692108 23.17120688 1 27 C2.65 27.33 4.3 27.66 6 28 C6.33 24.04 6.66 20.08 7 16 C7.66 16 8.32 16 9 16 C9.25521755 20.33869838 9.4006298 23.96679682 7.8125 28.0625 C6 30 6 30 3.5 30.5625 C1 30 1 30 -0.63354492 28.29711914 C-2.27597903 25.5360574 -2.37359554 23.87907116 -2.36328125 20.68359375 C-2.36263672 19.67232422 -2.36199219 18.66105469 -2.36132812 17.61914062 C-2.34521484 16.56919922 -2.32910156 15.51925781 -2.3125 14.4375 C-2.31572266 13.38369141 -2.31894531 12.32988281 -2.32226562 11.24414062 C-2.26720715 3.40081073 -2.26720715 3.40081073 0 0 Z " fill="#5F9FCC" transform="translate(112,108)"/>
<path d="M0 0 C1.26395496 3.79186489 0.4733635 4.35536396 -1 8 C-1.21043493 9.70807573 -1.41857942 11.41643449 -1.625 13.125 C-2.10546875 15.76953125 -2.10546875 15.76953125 -3 18 C-5.0169905 19.2731979 -6.80632366 19.77976479 -9.11328125 20.35546875 C-11.94612349 21.32320989 -12.54966396 23.49487411 -14 26 C-16.9375 26.6875 -16.9375 26.6875 -20 27 C-22.28480253 27.97348627 -22.28480253 27.97348627 -24 29 C-24 28.01 -24 27.02 -24 26 C-23.34 26 -22.68 26 -22 26 C-22 25.34 -22 24.68 -22 24 C-20.14375 23.4121875 -20.14375 23.4121875 -18.25 22.8125 C-15.01904225 21.63348384 -14.09179556 21.11609439 -11.875 18.3125 C-11.25625 17.549375 -10.6375 16.78625 -10 16 C-6.75 15.6875 -6.75 15.6875 -4 16 C-4.0825 14.845 -4.165 13.69 -4.25 12.5 C-4.28495033 7.60695379 -2.46132216 4.13150506 0 0 Z " fill="#E9ECF1" transform="translate(91,62)"/>
<path d="M0 0 C5.75 0.75 5.75 0.75 8 3 C8.50756752 7.09093766 8.56823052 11.20201812 8.68798828 15.32128906 C8.74957344 17.36087327 8.83269368 19.39878511 8.91796875 21.4375 C8.96050781 22.72398437 9.00304687 24.01046875 9.046875 25.3359375 C9.10633301 27.10783447 9.10633301 27.10783447 9.16699219 28.91552734 C9.00518828 31.90416847 8.57467349 33.49918406 7 36 C6 35 6 35 5.9375 32.9453125 C5.958125 32.01460937 5.97875 31.08390625 6 30.125 C6.08451994 21.3983157 5.51008819 12.70793408 5 4 C2.03 3.505 2.03 3.505 -1 3 C-0.67 2.01 -0.34 1.02 0 0 Z " fill="#EAECF0" transform="translate(67,132)"/>
<path d="M0 0 C4.39605737 3.48652826 5.8277358 7.67705219 7 13 C7.21196866 15.72853275 7.1495823 18.25765791 7 21 C2.86356447 21 2.30197567 20.84767359 -0.75 18.5 C-1.67039063 17.80390625 -1.67039063 17.80390625 -2.609375 17.09375 C-3.06828125 16.7328125 -3.5271875 16.371875 -4 16 C-3.34 15.67 -2.68 15.34 -2 15 C-1.01 15.33 -0.02 15.66 1 16 C1 16.66 1 17.32 1 18 C1.66 17.67 2.32 17.34 3 17 C2.62082881 12.67744847 2.19831427 9.07967707 0.375 5.125 C-0.07875 4.09375 -0.5325 3.0625 -1 2 C-0.67 1.34 -0.34 0.68 0 0 Z " fill="#4E94C9" transform="translate(163,73)"/>
<path d="M0 0 C0.33 0 0.66 0 1 0 C1.02471188 5.07201786 1.04286564 10.14400071 1.05493164 15.21606445 C1.05996158 16.9416566 1.06678626 18.66724448 1.07543945 20.39282227 C1.08756361 22.8725693 1.09324169 25.35226 1.09765625 27.83203125 C1.10281754 28.60400345 1.10797882 29.37597565 1.11329651 30.17134094 C1.11363318 33.3830228 1.02326578 35.93020266 0 39 C-1.485 39.495 -1.485 39.495 -3 40 C-2.88820386 35.77037931 -2.75805719 31.54150101 -2.625 27.3125 C-2.5940625 26.13365234 -2.563125 24.95480469 -2.53125 23.74023438 C-2.2667989 15.69651327 -1.40669323 7.92360045 0 0 Z " fill="#F4F5F8" transform="translate(141,147)"/>
<path d="M0 0 C10.56010411 -0.46588695 20.07128664 1.11516619 29 7 C28.01 7.495 28.01 7.495 27 8 C26.17242187 7.56042969 25.34484375 7.12085938 24.4921875 6.66796875 C20.08180911 4.56144574 15.93221592 3.97494015 11.125 3.3125 C10.24585937 3.18294922 9.36671875 3.05339844 8.4609375 2.91992188 C6.30861997 2.60409267 4.15447313 2.30077298 2 2 C2 7.61 2 13.22 2 19 C1.01 19 0.02 19 -1 19 C-0.67 12.73 -0.34 6.46 0 0 Z " fill="#6CB1D6" transform="translate(107,34)"/>
<path d="M0 0 C2.9375 0.375 2.9375 0.375 6 1 C7.9285791 4.85715821 7.48405181 9.56178909 7.6875 13.8125 C7.74744141 14.81087891 7.80738281 15.80925781 7.86914062 16.83789062 C7.91619141 17.80533203 7.96324219 18.77277344 8.01171875 19.76953125 C8.05772217 20.65229736 8.10372559 21.53506348 8.15112305 22.44458008 C7.96511886 25.58982371 7.29748899 28.70251101 5 31 C3.33382885 31.04063832 1.66611905 31.042721 0 31 C0.99 30.67 1.98 30.34 3 30 C4.01587978 26.95236066 4.19804406 24.65281033 4.31640625 21.45703125 C4.35830078 20.38388672 4.40019531 19.31074219 4.44335938 18.20507812 C4.48267578 17.08552734 4.52199219 15.96597656 4.5625 14.8125 C4.62727539 13.11577148 4.62727539 13.11577148 4.69335938 11.38476562 C4.79949099 8.58996646 4.90154385 5.79507838 5 3 C3.35 2.67 1.7 2.34 0 2 C0 1.34 0 0.68 0 0 Z " fill="#F2F2F8" transform="translate(113,172)"/>
<path d="M0 0 C1.65 0 3.3 0 5 0 C7.99862039 5.08461719 8.56214095 9.22026059 9 15 C11.64 15.99 14.28 16.98 17 18 C17 18.33 17 18.66 17 19 C15.35425434 19.02688151 13.70838587 19.04634123 12.0625 19.0625 C11.14597656 19.07410156 10.22945312 19.08570312 9.28515625 19.09765625 C7 19 7 19 6 18 C5.7022682 16.2961487 5.43700796 14.586578 5.1875 12.875 C4.31362463 7.75849308 2.86482654 4.29723981 0 0 Z " fill="#4791C4" transform="translate(132,61)"/>
<path d="M0 0 C0.33 1.32 0.66 2.64 1 4 C5.29 4.33 9.58 4.66 14 5 C13.67 6.32 13.34 7.64 13 9 C10.87506859 9.02693575 8.75004088 9.04636628 6.625 9.0625 C5.44164062 9.07410156 4.25828125 9.08570312 3.0390625 9.09765625 C0 9 0 9 -2 8 C-1.34 5.36 -0.68 2.72 0 0 Z " fill="#2C5D81" transform="translate(155,90)"/>
<path d="M0 0 C0.33 0 0.66 0 1 0 C1.33 4.62 1.66 9.24 2 14 C2.33 14 2.66 14 3 14 C3.76681614 23.73004484 3.76681614 23.73004484 1.88671875 26.84375 C0.5 28.1875 0.5 28.1875 -2 30 C-4.475 29.01 -4.475 29.01 -7 28 C-6.38125 27.87625 -5.7625 27.7525 -5.125 27.625 C-2.80879168 27.12802644 -2.80879168 27.12802644 -1 25 C-0.62826984 22.3817233 -0.62826984 22.3817233 -0.5859375 19.3359375 C-0.52792969 17.65371094 -0.52792969 17.65371094 -0.46875 15.9375 C-0.42234375 14.1740625 -0.42234375 14.1740625 -0.375 12.375 C-0.31699219 10.59996094 -0.31699219 10.59996094 -0.2578125 8.7890625 C-0.16331155 5.85953309 -0.07775442 2.93001403 0 0 Z " fill="#E6E6EC" transform="translate(164,142)"/>
<path d="M0 0 C0.99 0.66 1.98 1.32 3 2 C3 2.66 3 3.32 3 4 C1.35 4.66 -0.3 5.32 -2 6 C-2 6.66 -2 7.32 -2 8 C-3.15628906 8.11408203 -3.15628906 8.11408203 -4.3359375 8.23046875 C-7.10735397 8.74547567 -7.10735397 8.74547567 -8.4765625 10.92578125 C-8.85554688 11.71339844 -9.23453125 12.50101563 -9.625 13.3125 C-11.1835906 16.47675274 -12.80671767 19.22987174 -15 22 C-14.24290448 14.23977095 -10.65316933 9.10164062 -5 4 C-3.35135455 2.64444707 -1.68996005 1.30368347 0 0 Z " fill="#EEF0F6" transform="translate(93,39)"/>
<path d="M0 0 C6.46326465 -0.45356243 9.60931587 0.40621058 15 4 C15 4.66 15 5.32 15 6 C16.3921875 6.0928125 16.3921875 6.0928125 17.8125 6.1875 C21 7 21 7 22.875 9.5625 C23.431875 10.7690625 23.431875 10.7690625 24 12 C20.24966304 10.56443146 16.70087475 8.88758932 13.125 7.0625 C8.80131742 4.87930719 4.48194119 2.83352139 0 1 C0 0.67 0 0.34 0 0 Z " fill="#EEF0F5" transform="translate(134,22)"/>
<path d="M0 0 C0.45375 0.680625 0.9075 1.36125 1.375 2.0625 C0.375 3.0625 0.375 3.0625 -2.56640625 3.16015625 C-4.35884766 3.14275391 -4.35884766 3.14275391 -6.1875 3.125 C-7.98380859 3.11146484 -7.98380859 3.11146484 -9.81640625 3.09765625 C-10.74324219 3.08605469 -11.67007813 3.07445313 -12.625 3.0625 C-12.625 1.7425 -12.625 0.4225 -12.625 -0.9375 C-3.45213348 -2.54800328 -3.45213348 -2.54800328 0 0 Z " fill="#3F5870" transform="translate(78.625,95.9375)"/>
<path d="M0 0 C3.73942719 0.60313342 6.74706776 1.67053878 10.125 3.375 C11.39730469 4.00535156 11.39730469 4.00535156 12.6953125 4.6484375 C14.90856701 5.94637998 16.45776718 6.95376953 18 9 C18 10.32 18 11.64 18 13 C17.01 12.67 16.02 12.34 15 12 C15 11.34 15 10.68 15 10 C12.525 9.01 12.525 9.01 10 8 C10 7.34 10 6.68 10 6 C9.278125 5.7525 8.55625 5.505 7.8125 5.25 C4.75286734 3.89016326 2.5326262 2.17082246 0 0 Z " fill="#5EABD8" transform="translate(125,38)"/>
<path d="M0 0 C0.7734375 0.61875 0.7734375 0.61875 1.5625 1.25 C7.68856853 5.69193478 7.68856853 5.69193478 15 7 C14.34 8.98 13.68 10.96 13 13 C12.34 13 11.68 13 11 13 C10.608125 12.21625 10.21625 11.4325 9.8125 10.625 C7.35138182 7.06062195 5.15920448 6.8169866 1 6 C0.01 6 -0.98 6 -2 6 C-1.34 4.02 -0.68 2.04 0 0 Z " fill="#659ECA" transform="translate(183,116)"/>
<path d="M0 0 C0.66 0.33 1.32 0.66 2 1 C1.938125 2.010625 1.87625 3.02125 1.8125 4.0625 C2.02642827 8.55499372 3.04613532 11.01085961 5 15 C5.99 15 6.98 15 8 15 C8.33 14.34 8.66 13.68 9 13 C9.66 13 10.32 13 11 13 C10 15 9 17 8 19 C6.12011719 18.73852539 6.12011719 18.73852539 4 18 C2.90332031 16.32592773 2.90332031 16.32592773 2.078125 14.18359375 C1.62373047 13.03793945 1.62373047 13.03793945 1.16015625 11.86914062 C0.70962891 10.66547852 0.70962891 10.66547852 0.25 9.4375 C-0.06582031 8.63119141 -0.38164063 7.82488281 -0.70703125 6.99414062 C-1.48523782 5.00146017 -2.24444266 3.00137801 -3 1 C-2.01 0.67 -1.02 0.34 0 0 Z " fill="#6498C3" transform="translate(36,123)"/>
<path d="M0 0 C0.78375 0.04125 1.5675 0.0825 2.375 0.125 C1.80147107 3.99632028 -0.11204352 6.20672796 -2.625 9.125 C-1.965 9.455 -1.305 9.785 -0.625 10.125 C-1.615 11.61 -1.615 11.61 -2.625 13.125 C-3.285 13.125 -3.945 13.125 -4.625 13.125 C-4.67891993 11.33366022 -4.71775571 9.54186101 -4.75 7.75 C-4.77320312 6.75226562 -4.79640625 5.75453125 -4.8203125 4.7265625 C-4.54603402 1.07317311 -3.66648281 0.17459442 0 0 Z " fill="#3EA2F7" transform="translate(114.625,36.875)"/>
<path d="M0 0 C2.475 0.99 2.475 0.99 5 2 C5 2.66 5 3.32 5 4 C5.66 4 6.32 4 7 4 C7.66 5.65 8.32 7.3 9 9 C8.43796875 8.71253906 7.8759375 8.42507812 7.296875 8.12890625 C0.62338131 4.8489068 -5.5573181 2.55130977 -13 2 C-13 1.67 -13 1.34 -13 1 C-11.71802734 1.01740234 -11.71802734 1.01740234 -10.41015625 1.03515625 C-8.75306641 1.04869141 -8.75306641 1.04869141 -7.0625 1.0625 C-5.40927734 1.07990234 -5.40927734 1.07990234 -3.72265625 1.09765625 C-1.08552366 1.31262571 -1.08552366 1.31262571 0 0 Z " fill="#4993C7" transform="translate(122,50)"/>
<path d="M0 0 C7.36095182 0.31323199 13.30883089 1.93914605 20 5 C20 5.66 20 6.32 20 7 C17.23723823 6.47731534 14.6739124 5.89130413 12 5 C9.72192256 4.54603529 7.44103896 4.11419048 5.15625 3.6953125 C2.72121536 2.91010205 1.64185891 1.9260268 0 0 Z " fill="#EBEEF2" transform="translate(129,6)"/>
<path d="M0 0 C0.66 0.33 1.32 0.66 2 1 C1.649375 1.721875 1.29875 2.44375 0.9375 3.1875 C-0.12787856 6.38363569 -0.0812528 7.8394149 1 11 C2.4579186 12.79385992 2.4579186 12.79385992 4 14 C0.32579134 13.69381595 -0.78135513 13.24228216 -3.3125 10.4375 C-3.869375 9.633125 -4.42625 8.82875 -5 8 C-3.8141763 4.62496331 -2.72426311 2.35277269 0 0 Z " fill="#E7E9EE" transform="translate(158,108)"/>
<path d="M0 0 C1.43294255 2.86588511 0.56870553 4.90371436 0 8 C0 8.99 0 9.98 0 11 C2.475 11.99 2.475 11.99 5 13 C5 13.66 5 14.32 5 15 C1.23914141 14.47765853 -1.41126058 13.87637713 -4 11 C-4.5 7.5625 -4.5 7.5625 -4 4 C-2 1.5625 -2 1.5625 0 0 Z " fill="#E1E6ED" transform="translate(133,108)"/>
<path d="M0 0 C0.66 0.33 1.32 0.66 2 1 C1.2884375 1.804375 1.2884375 1.804375 0.5625 2.625 C-1.28186076 5.42842836 -1.62456847 7.69620258 -2 11 C-1.34 11.33 -0.68 11.66 0 12 C0.33 12.99 0.66 13.98 1 15 C2.49985609 16.66710346 2.49985609 16.66710346 4 18 C1.27425729 17.62669176 0.19177915 17.20805399 -1.703125 15.15234375 C-2.21359375 14.42144531 -2.7240625 13.69054687 -3.25 12.9375 C-3.77078125 12.20402344 -4.2915625 11.47054687 -4.828125 10.71484375 C-5.21484375 10.14894531 -5.6015625 9.58304688 -6 9 C-3.375 2.25 -3.375 2.25 0 0 Z " fill="#558EBB" transform="translate(183,120)"/>
<path d="M0 0 C2.46694247 2.08148271 3.85643482 3.28217411 4.5 6.5 C3.83186557 9.84067217 2.77339233 11.05112972 0 13 C-2.75 12.75 -2.75 12.75 -5 12 C-4.154375 11.484375 -3.30875 10.96875 -2.4375 10.4375 C-1.633125 9.633125 -0.82875 8.82875 0 8 C-0.15226157 4.3485263 -0.15226157 4.3485263 -1 1 C-0.67 0.67 -0.34 0.34 0 0 Z " fill="#F0F3F6" transform="translate(140,109)"/>
<path d="M0 0 C0.99 0.33 1.98 0.66 3 1 C1.02 4.96 -0.96 8.92 -3 13 C-4.32 12.67 -5.64 12.34 -7 12 C-7 11.34 -7 10.68 -7 10 C-6.34 10 -5.68 10 -5 10 C-5 9.34 -5 8.68 -5 8 C-4.01 8 -3.02 8 -2 8 C-2.3403125 7.13375 -2.3403125 7.13375 -2.6875 6.25 C-3 4 -3 4 -1.5625 1.75 C-1.046875 1.1725 -0.53125 0.595 0 0 Z " fill="#508DBB" transform="translate(193,129)"/>
<path d="M0 0 C2.94563014 0.3184465 4.61076606 0.66266392 6.875 2.625 C8.46941325 5.99098353 7.75430117 8.43421263 7 12 C5.35 12.66 3.7 13.32 2 14 C2 13.34 2 12.68 2 12 C2.66 12 3.32 12 4 12 C4.59236584 6.28662627 4.59236584 6.28662627 2 1.5 C1.34 1.005 0.68 0.51 0 0 Z " fill="#E4E6ED" transform="translate(161,108)"/>
<path d="M0 0 C0.33 0.99 0.66 1.98 1 3 C0.01 3.495 0.01 3.495 -1 4 C-1.46907051 6.12998171 -1.46907051 6.12998171 -1.6328125 8.69140625 C-1.71660156 9.63564453 -1.80039063 10.57988281 -1.88671875 11.55273438 C-1.96535156 12.54595703 -2.04398438 13.53917969 -2.125 14.5625 C-2.21136719 15.55958984 -2.29773438 16.55667969 -2.38671875 17.58398438 C-2.59956793 20.05539988 -2.80359321 22.52723225 -3 25 C-3.33 25 -3.66 25 -4 25 C-4.02901394 21.5625177 -4.04680335 18.12506688 -4.0625 14.6875 C-4.07087891 13.71103516 -4.07925781 12.73457031 -4.08789062 11.72851562 C-4.09111328 10.79072266 -4.09433594 9.85292969 -4.09765625 8.88671875 C-4.10551147 7.59060669 -4.10551147 7.59060669 -4.11352539 6.26831055 C-4 4 -4 4 -3 1 C-2.01 0.67 -1.02 0.34 0 0 Z " fill="#E5E9EF" transform="translate(134,132)"/>
<path d="M0 0 C0.94875 0.04125 1.8975 0.0825 2.875 0.125 C3.535 1.445 4.195 2.765 4.875 4.125 C1.875 4.125 1.875 4.125 -1.125 2.125 C-1.125 2.785 -1.125 3.445 -1.125 4.125 C-1.785 4.785 -2.445 5.445 -3.125 6.125 C-3.455 7.115 -3.785 8.105 -4.125 9.125 C-4.455 9.125 -4.785 9.125 -5.125 9.125 C-5.25 5.75 -5.25 5.75 -5.125 2.125 C-3.125 0.125 -3.125 0.125 0 0 Z " fill="#EAEDF3" transform="translate(115.125,146.875)"/>
<path d="M0 0 C2.31 0 4.62 0 7 0 C6.360625 0.309375 5.72125 0.61875 5.0625 0.9375 C3.06389179 1.8345163 3.06389179 1.8345163 2 3 C1.76636119 4.84891946 1.58696365 6.70488031 1.4375 8.5625 C1.35371094 9.57441406 1.26992187 10.58632813 1.18359375 11.62890625 C1.12300781 12.41136719 1.06242187 13.19382812 1 14 C3.64 14 6.28 14 9 14 C9 14.33 9 14.66 9 15 C7.52093108 15.02689216 6.04172517 15.04634621 4.5625 15.0625 C3.32693359 15.07990234 3.32693359 15.07990234 2.06640625 15.09765625 C0 15 0 15 -1 14 C-0.90968426 11.64305046 -0.75311872 9.28846418 -0.5625 6.9375 C-0.46066406 5.64714844 -0.35882813 4.35679688 -0.25390625 3.02734375 C-0.17011719 2.02832031 -0.08632812 1.02929688 0 0 Z " fill="#489EDF" transform="translate(109,36)"/>
<path d="M0 0 C2.31 0 4.62 0 7 0 C6.34 0.66 5.68 1.32 5 2 C4.01 2 3.02 2 2 2 C2 7.61 2 13.22 2 19 C1.01 19 0.02 19 -1 19 C-0.67 12.73 -0.34 6.46 0 0 Z " fill="#77ABCF" transform="translate(107,34)"/>
<path d="M0 0 C0.66 0 1.32 0 2 0 C1.54738642 1.43931117 1.08767021 2.87638999 0.625 4.3125 C0.36976562 5.11300781 0.11453125 5.91351563 -0.1484375 6.73828125 C-1 9 -1 9 -3 12 C-3.69313908 13.65583225 -4.36474424 15.32110979 -5 17 C-5.66 17 -6.32 17 -7 17 C-6.37954537 12.76677156 -4.89476441 9.47709705 -2.9375 5.6875 C-2.38964844 4.61886719 -1.84179688 3.55023438 -1.27734375 2.44921875 C-0.64505859 1.23685547 -0.64505859 1.23685547 0 0 Z " fill="#EAEAEE" transform="translate(40,48)"/>
<path d="M0 0 C-0.33 0.66 -0.66 1.32 -1 2 C-3.5625 2.625 -3.5625 2.625 -6 3 C-6.66 4.98 -7.32 6.96 -8 9 C-8.66 8.67 -9.32 8.34 -10 8 C-9.75 4.625 -9.75 4.625 -9 1 C-5.99969508 -1.57168993 -3.64893445 -1.0135929 0 0 Z " fill="#EAEEF6" transform="translate(99,133)"/>
<path d="M0 0 C0 2.31 0 4.62 0 7 C-0.33 7 -0.66 7 -1 7 C-1 5.35 -1 3.7 -1 2 C-1.60328125 2.22816406 -2.2065625 2.45632812 -2.828125 2.69140625 C-3.62734375 2.97886719 -4.4265625 3.26632813 -5.25 3.5625 C-6.03890625 3.85253906 -6.8278125 4.14257812 -7.640625 4.44140625 C-10.19103452 5.04522837 -11.55322229 4.8473932 -14 4 C-4.58997722 -0.59225513 -4.58997722 -0.59225513 0 0 Z " fill="#C6D8E5" transform="translate(108,35)"/>
<path d="M0 0 C0 0.66 0 1.32 0 2 C-1.65 2.33 -3.3 2.66 -5 3 C-5.33 3.99 -5.66 4.98 -6 6 C-7.32 6 -8.64 6 -10 6 C-10 6.66 -10 7.32 -10 8 C-11.98 8.66 -13.96 9.32 -16 10 C-14.68682429 6.06047287 -13.18611861 5.75042289 -9.5625 3.875 C-8.07943359 3.09769531 -8.07943359 3.09769531 -6.56640625 2.3046875 C-2.03293413 0 -2.03293413 0 0 0 Z " fill="#EAECF0" transform="translate(84,10)"/>
<path d="M0 0 C3.0625 0.1875 3.0625 0.1875 5.0625 2.1875 C4.6875 4.3125 4.6875 4.3125 4.0625 6.1875 C4.0625 5.5275 4.0625 4.8675 4.0625 4.1875 C3.4025 4.1875 2.7425 4.1875 2.0625 4.1875 C2.0625 3.5275 2.0625 2.8675 2.0625 2.1875 C-1.05535113 2.83394661 -1.05535113 2.83394661 -1.9375 5.1875 C-2.5975 5.1875 -3.2575 5.1875 -3.9375 5.1875 C-4.2675 6.1775 -4.5975 7.1675 -4.9375 8.1875 C-3.92735959 0.25068253 -3.92735959 0.25068253 0 0 Z " fill="#70AFDE" transform="translate(114.9375,107.8125)"/>
<path d="M0 0 C2.47186455 2.96346786 3.66248361 5.54041689 4.6875 9.25 C4.93886719 10.14203125 5.19023437 11.0340625 5.44921875 11.953125 C5.72185547 12.96632813 5.72185547 12.96632813 6 14 C3 12 3 12 2 9 C1.01 8.67 0.02 8.34 -1 8 C-1.04241723 5.66705225 -1.04092937 3.33297433 -1 1 C-0.67 0.67 -0.34 0.34 0 0 Z " fill="#EBEEF3" transform="translate(193,53)"/>
<path d="M0 0 C0.66 0 1.32 0 2 0 C3.5078125 2.1171875 3.5078125 2.1171875 5.125 4.875 C5.66382813 5.77992187 6.20265625 6.68484375 6.7578125 7.6171875 C8 10 8 10 8 12 C6.35 11.67 4.7 11.34 3 11 C3.33 10.34 3.66 9.68 4 9 C3.2660481 6.02252712 3.2660481 6.02252712 1.4375 4.5 C0 3 0 3 0 0 Z " fill="#F0F0F3" transform="translate(185,41)"/>
<path d="M0 0 C0.66 1.32 1.32 2.64 2 4 C-3.17578125 7.22265625 -3.17578125 7.22265625 -5 8 C-5.99 7.67 -6.98 7.34 -8 7 C-5.4837822 4.39391727 -2.94865641 2.10618315 0 0 Z " fill="#6CAAD3" transform="translate(47,116)"/>
<path d="M0 0 C0.66 0 1.32 0 2 0 C2.33 6.6 2.66 13.2 3 20 C2.01 19.67 1.02 19.34 0 19 C0 12.73 0 6.46 0 0 Z " fill="#E9ECF1" transform="translate(42,86)"/>
<path d="M0 0 C4.97874064 0.47416578 8.06718758 1.9099331 12 5 C12 5.66 12 6.32 12 7 C8.88452559 6.32116957 6.14862279 5.25893098 3.25 3.9375 C2.45078125 3.57527344 1.6515625 3.21304688 0.828125 2.83984375 C0.22484375 2.56269531 -0.3784375 2.28554687 -1 2 C-0.67 1.34 -0.34 0.68 0 0 Z " fill="#6DB0E1" transform="translate(151,66)"/>
<path d="M0 0 C0.66 0.66 1.32 1.32 2 2 C1.67176873 6.34906427 0.80260764 10.0342632 -1 14 C-2.62433191 11.49923002 -3.07333427 10.41017471 -2.5390625 7.421875 C-2.23742187 6.54015625 -1.93578125 5.6584375 -1.625 4.75 C-1.32851562 3.85796875 -1.03203125 2.9659375 -0.7265625 2.046875 C-0.48679688 1.37140625 -0.24703125 0.6959375 0 0 Z " fill="#DEE1E7" transform="translate(186,104)"/>
<path d="M0 0 C2.50037734 2.17424117 3.43628586 3.73045798 4 7 C6.64 7.33 9.28 7.66 12 8 C12 8.33 12 8.66 12 9 C8.04 9 4.08 9 0 9 C0 6 0 3 0 0 Z " fill="#3D77A2" transform="translate(155,86)"/>
<path d="M0 0 C0.98484375 0.10183594 1.9696875 0.20367188 2.984375 0.30859375 C4.10585937 0.43427734 4.10585937 0.43427734 5.25 0.5625 C5.25 1.2225 5.25 1.8825 5.25 2.5625 C-0.03 2.5625 -5.31 2.5625 -10.75 2.5625 C-9.75 0.5625 -9.75 0.5625 -8.046875 -0.08984375 C-5.25636896 -0.51221626 -2.80414447 -0.30044405 0 0 Z " fill="#E7E8EB" transform="translate(118.75,17.4375)"/>
<path d="M0 0 C0.33 0 0.66 0 1 0 C1.19532961 1.7699868 1.38098882 3.54104279 1.5625 5.3125 C1.66691406 6.29863281 1.77132812 7.28476563 1.87890625 8.30078125 C2 11 2 11 1 14 C0.01 14.33 -0.98 14.66 -2 15 C-1.85973717 12.68715544 -1.71264442 10.37472409 -1.5625 8.0625 C-1.48128906 6.77472656 -1.40007812 5.48695313 -1.31640625 4.16015625 C-1 1 -1 1 0 0 Z " fill="#EAEDF2" transform="translate(140,172)"/>
<path d="M0 0 C0.33 0.66 0.66 1.32 1 2 C1.66 2 2.32 2 3 2 C2.67 3.32 2.34 4.64 2 6 C-1.63 6 -5.26 6 -9 6 C-9 6.99 -9 7.98 -9 9 C-9.66 9 -10.32 9 -11 9 C-11.33 8.01 -11.66 7.02 -12 6 C-9.47524538 4.73762269 -7.68799534 4.90143596 -4.875 4.9375 C-3.96492188 4.94652344 -3.05484375 4.95554687 -2.1171875 4.96484375 C-1.41851562 4.97644531 -0.71984375 4.98804687 0 5 C0 3.35 0 1.7 0 0 Z " fill="#5586AA" transform="translate(75,89)"/>
<path d="M0 0 C-1.69179328 2.04219706 -2.63727666 2.91793306 -5.26171875 3.51171875 C-6.06222656 3.56972656 -6.86273438 3.62773437 -7.6875 3.6875 C-8.49574219 3.75324219 -9.30398437 3.81898437 -10.13671875 3.88671875 C-11.05904297 3.94279297 -11.05904297 3.94279297 -12 4 C-12 3.34 -12 2.68 -12 2 C-10.56656 1.46809459 -9.12804633 0.94984742 -7.6875 0.4375 C-6.48673828 0.00244141 -6.48673828 0.00244141 -5.26171875 -0.44140625 C-3 -1 -3 -1 0 0 Z " fill="#E9EDEF" transform="translate(97,7)"/>
<path d="M0 0 C4.12751449 0.60698743 7.3321148 2.03810791 11 4 C11 4.66 11 5.32 11 6 C11.66 6 12.32 6 13 6 C13 6.66 13 7.32 13 8 C12.01 8 11.02 8 10 8 C10 7.34 10 6.68 10 6 C9.278125 5.7525 8.55625 5.505 7.8125 5.25 C4.75286734 3.89016326 2.5326262 2.17082246 0 0 Z " fill="#54B8EC" transform="translate(125,38)"/>
<path d="M0 0 C3.25666272 0.56149357 4.95623323 1.37229986 7 4 C7.6875 6.1875 7.6875 6.1875 8 8 C4.63820226 6.55922954 2.40843732 4.75249979 0 2 C0 1.34 0 0.68 0 0 Z " fill="#EBEFF6" transform="translate(160,35)"/>
<path d="M0 0 C4.19360449 0.67097672 7.40334352 2.8558394 11 5 C10.67 6.32 10.34 7.64 10 9 C8.33043913 7.69118353 6.66441696 6.37785174 5 5.0625 C4.071875 4.33160156 3.14375 3.60070312 2.1875 2.84765625 C1.465625 2.23792969 0.74375 1.62820312 0 1 C0 0.67 0 0.34 0 0 Z " fill="#4C9ADF" transform="translate(149,79)"/>
<path d="M0 0 C1.32 0.33 2.64 0.66 4 1 C4.66 3.31 5.32 5.62 6 8 C5.34 8.66 4.68 9.32 4 10 C3 5.25 3 5.25 3 3 C2.01 3 1.02 3 0 3 C0 2.01 0 1.02 0 0 Z " fill="#E3E6EB" transform="translate(161,132)"/>
<path d="M0 0 C0.66 0 1.32 0 2 0 C2.33 1.32 2.66 2.64 3 4 C1.35 5.32 -0.3 6.64 -2 8 C-2.66 7.67 -3.32 7.34 -4 7 C-3.525625 6.21625 -3.05125 5.4325 -2.5625 4.625 C-1.66101977 3.11051322 -0.78820515 1.5764103 0 0 Z " fill="#DCEFF5" transform="translate(45,112)"/>
<path d="M0 0 C2.97 0 5.94 0 9 0 C8.67 0.99 8.34 1.98 8 3 C2.25 3.125 2.25 3.125 0 2 C0 1.34 0 0.68 0 0 Z " fill="#2C5A7E" transform="translate(66,95)"/>
<path d="M0 0 C0 0.99 0 1.98 0 3 C-2.97 4.32 -5.94 5.64 -9 7 C-8.67 5.68 -8.34 4.36 -8 3 C-6.15234375 1.953125 -6.15234375 1.953125 -3.9375 1.25 C-2.83728516 0.88648438 -2.83728516 0.88648438 -1.71484375 0.515625 C-1.14894531 0.34546875 -0.58304688 0.1753125 0 0 Z " fill="#E3EBF0" transform="translate(105,51)"/>
<path d="M0 0 C2.64 0 5.28 0 8 0 C8 0.66 8 1.32 8 2 C5.47524538 3.26237731 3.68799534 3.09856404 0.875 3.0625 C-0.03507812 3.05347656 -0.94515625 3.04445313 -1.8828125 3.03515625 C-2.58148438 3.02355469 -3.28015625 3.01195312 -4 3 C-2.68 2.67 -1.36 2.34 0 2 C0 1.34 0 0.68 0 0 Z " fill="#F1F3F5" transform="translate(124,18)"/>
<path d="M0 0 C2.0625 1.6875 2.0625 1.6875 4 4 C3.75 6.75 3.75 6.75 3 9 C0.11749016 6.61879622 -0.61038985 4.70129644 -1 1 C-0.67 0.67 -0.34 0.34 0 0 Z " fill="#599CD3" transform="translate(163,73)"/>
<path d="M0 0 C0.33 0 0.66 0 1 0 C1 1.65 1 3.3 1 5 C-0.98 5.99 -0.98 5.99 -3 7 C-3 7.99 -3 8.98 -3 10 C-3.66 10 -4.32 10 -5 10 C-4.49380917 6.25418786 -3.84235245 4.48705839 -1 2 C-0.67 1.34 -0.34 0.68 0 0 Z " fill="#4491D4" transform="translate(50,126)"/>
<path d="M0 0 C2.64 0.33 5.28 0.66 8 1 C7.67 1.66 7.34 2.32 7 3 C3.9375 3.625 3.9375 3.625 1 4 C0.67 2.68 0.34 1.36 0 0 Z " fill="#C9E2F3" transform="translate(32,120)"/>
<path d="M0 0 C2 1 2 1 3 3 C2.71887936 5.00800456 2.38932033 7.01014051 2 9 C1.34 8.67 0.68 8.34 0 8 C-0.6875 4.5 -0.6875 4.5 -1 1 C-0.67 0.67 -0.34 0.34 0 0 Z " fill="#ECEFF5" transform="translate(186,74)"/>
<path d="M0 0 C4.40114397 0.50298788 6.71195019 2.08772731 10 5 C7.25 5.3125 7.25 5.3125 4 5 C1.625 2.5 1.625 2.5 0 0 Z " fill="#4BA1E0" transform="translate(153,69)"/>
<path d="M0 0 C0.66 0.33 1.32 0.66 2 1 C-0.46153846 5.8 -0.46153846 5.8 -3.1875 6.8125 C-3.785625 6.874375 -4.38375 6.93625 -5 7 C-3.75023244 3.34683329 -3.32901247 2.21934164 0 0 Z " fill="#F0F1F4" transform="translate(57,48)"/>
<path d="M0 0 C0.5775 0.45375 1.155 0.9075 1.75 1.375 C3.7800333 2.84113516 5.73539843 3.94857784 8 5 C5.15247365 6.42376318 3.08125973 5.51354329 0 5 C-0.99 5.495 -0.99 5.495 -2 6 C-1.34 4.02 -0.68 2.04 0 0 Z " fill="#92BBD2" transform="translate(183,116)"/>
<path d="M0 0 C0.33 0.99 0.66 1.98 1 3 C0.01 3.66 -0.98 4.32 -2 5 C-2.72965366 7.56282742 -2.72965366 7.56282742 -3 10 C-3.33 10 -3.66 10 -4 10 C-3.67 7.03 -3.34 4.06 -3 1 C-2.01 0.67 -1.02 0.34 0 0 Z " fill="#DCE4E7" transform="translate(134,132)"/>
<path d="M0 0 C0.74955438 2.9982175 1.41070989 5.96936513 2 9 C0.68 8.67 -0.64 8.34 -2 8 C-1.34 5.36 -0.68 2.72 0 0 Z " fill="#44627C" transform="translate(155,90)"/>
<path d="M0 0 C-6.75 3.875 -6.75 3.875 -9 5 C-9 4.01 -9 3.02 -9 2 C-8.34 2 -7.68 2 -7 2 C-7 1.34 -7 0.68 -7 0 C-3.86650268 -1.04449911 -3.01031744 -0.93423645 0 0 Z " fill="#D8F1FD" transform="translate(76,86)"/>
<path d="M0 0 C0.66 0.66 1.32 1.32 2 2 C0.8125 4.5 0.8125 4.5 -1 7 C-3.6875 7.3125 -3.6875 7.3125 -6 7 C-5.67 6.34 -5.34 5.68 -5 5 C-4.01 5 -3.02 5 -2 5 C-1.34 3.35 -0.68 1.7 0 0 Z " fill="#B9CBEA" transform="translate(78,81)"/>
<path d="M0 0 C2.31 0.33 4.62 0.66 7 1 C7 1.99 7 2.98 7 4 C3.73045798 3.43628586 2.17424117 2.50037734 0 0 Z " fill="#D8F1FB" transform="translate(190,120)"/>
<path d="M0 0 C0.66 0 1.32 0 2 0 C1.67 1.32 1.34 2.64 1 4 C-1.97 4 -4.94 4 -8 4 C-8 3.67 -8 3.34 -8 3 C-5.69 3 -3.38 3 -1 3 C-0.67 2.01 -0.34 1.02 0 0 Z " fill="#4E6D87" transform="translate(167,95)"/>
<path d="M0 0 C4.67692308 1.47692308 4.67692308 1.47692308 6.3125 4.125 C6.539375 4.74375 6.76625 5.3625 7 6 C4.0625 5.25 4.0625 5.25 1 4 C0.125 1.875 0.125 1.875 0 0 Z " fill="#F2F2F6" transform="translate(169,25)"/>
<path d="M0 0 C2.475 0.99 2.475 0.99 5 2 C5 2.99 5 3.98 5 5 C2.525 4.01 2.525 4.01 0 3 C0 2.01 0 1.02 0 0 Z " fill="#EEF0F5" transform="translate(163,20)"/>
<path d="M0 0 C2.97 0.495 2.97 0.495 6 1 C6.33 1.99 6.66 2.98 7 4 C4.625 3.6875 4.625 3.6875 2 3 C1.34 2.01 0.68 1.02 0 0 Z " fill="#EBEFF2" transform="translate(150,13)"/>
<path d="M0 0 C2.31 0 4.62 0 7 0 C6.67 0.66 6.34 1.32 6 2 C3.67843403 2.40729228 1.3431213 2.74438677 -1 3 C-0.67 2.01 -0.34 1.02 0 0 Z " fill="#F1F0F6" transform="translate(101,5)"/>
</svg>
